<svg width="706" height="208" viewBox="0 0 706 208" fill="none" xmlns="http://www.w3.org/2000/svg">
<g clip-path="url(#clip0_11_27)">
<g filter="url(#filter0_d_11_27)">
<path d="M166.259 130.601C177.014 132.285 185.653 136.237 192.176 142.456C198.7 148.546 201.961 155.542 201.961 163.445C201.961 174.847 196.496 183.917 185.565 190.654C174.81 197.262 159.736 200.565 140.342 200.565H53.8622V64.1349H137.433C156.298 64.1349 171.019 67.3092 181.598 73.6578C192.353 80.0064 197.73 88.6224 197.73 99.5058C197.73 107.539 194.821 114.211 189.003 119.523C183.361 124.835 175.78 128.528 166.259 130.601ZM99.0854 119.329H128.705C136.11 119.329 141.752 118.163 145.631 115.831C149.686 113.369 151.713 109.806 151.713 105.142C151.713 100.477 149.686 96.9145 145.631 94.4528C141.752 91.9911 136.11 90.7602 128.705 90.7602H99.0854V119.329ZM132.408 173.746C139.989 173.746 145.807 172.515 149.862 170.053C154.094 167.462 156.209 163.769 156.209 158.976C156.209 154.182 154.006 150.424 149.598 147.703C145.366 144.983 139.46 143.622 131.879 143.622H99.0854V173.746H132.408Z" fill="url(#paint0_linear_11_27)"/>
</g>
<g clip-path="url(#clip1_11_27)">
<path fill-rule="evenodd" clip-rule="evenodd" d="M182.023 0.752545C181.55 1.12172 179.876 1.68509 178.001 2.10517C173.842 3.03771 167.857 4.90391 166.29 5.75716C165.613 6.1255 165.059 6.35892 165.059 6.27546C165.059 6.19227 165.767 5.7477 166.631 5.28755C167.495 4.82768 168.044 4.45127 167.853 4.45127C167.15 4.45127 164.666 6.18421 164.767 6.60402C164.824 6.84188 164.615 7.09032 164.302 7.15597C163.904 7.23971 163.87 7.20466 164.188 7.03857C164.464 6.89418 164.515 6.65187 164.32 6.41929C164.055 6.10408 163.794 6.12968 162.83 6.56562C160.675 7.54045 155.037 10.3751 154.083 10.9632L153.14 11.5455L153.869 10.9106C154.27 10.5612 155.206 10.0028 155.949 9.66927C156.691 9.3357 158.661 8.35698 160.327 7.49455C161.993 6.63184 163.611 5.85453 163.924 5.7669C164.32 5.65617 164.341 5.60137 163.992 5.58607C163.718 5.5741 162.099 6.28881 160.396 7.17434C158.692 8.05986 156.699 9.05361 155.967 9.38272C155.235 9.71156 154.226 10.3014 153.724 10.6936C153.223 11.0856 152.654 11.4064 152.46 11.4064C152.047 11.4064 144.995 14.9827 144.995 15.1922C144.995 15.2701 145.208 15.24 145.468 15.1251C145.789 14.9833 145.775 15.067 145.422 15.3869C144.859 15.8966 144.425 16.0324 144.806 15.5794C145.209 15.1001 144.386 15.2765 143.729 15.8101C143.007 16.3954 142.896 16.8188 143.539 16.5267C143.804 16.4063 143.874 16.4499 143.716 16.6372C143.573 16.8072 143.207 16.8759 142.903 16.7902C142.573 16.697 141.45 17.2067 140.121 18.053C138.895 18.8333 137.233 19.6913 136.427 19.9598C134.849 20.4853 133.617 21.0837 131.429 22.3888C130.366 23.0231 130.218 23.0634 130.798 22.5615C131.688 21.7917 133.818 20.7062 136.206 19.8059C137.832 19.193 143.067 16.1359 142.49 16.1359C142.338 16.1359 141.23 16.7654 140.026 17.5347C138.822 18.3039 137.19 19.1491 136.399 19.4125C133.697 20.3125 130.125 22.4519 129.251 23.6936C128.948 24.1245 128.786 24.7599 128.891 25.1054C128.997 25.4512 128.918 26.1721 128.717 26.7076C128.373 27.6229 128.361 27.602 128.526 26.3599C128.745 24.7104 128.135 24.6147 126.36 26.0196C125.678 26.5591 123.373 28.1395 121.239 29.5311C119.105 30.923 117.359 32.1869 117.359 32.3399C117.359 32.4929 117.657 32.4523 118.021 32.2497C118.593 31.9317 118.616 31.9365 118.192 32.2851C117.921 32.5073 117.495 32.6912 117.245 32.6937C116.995 32.6962 116.8 32.9469 116.811 33.2504C116.825 33.6377 116.565 33.8143 115.94 33.843C115.109 33.8811 115.094 33.8583 115.731 33.5039C116.106 33.2949 116.263 33.1199 116.08 33.1152C115.648 33.1038 109.03 37.8594 109.03 38.1808C109.03 38.3151 109.227 38.3357 109.467 38.2267C109.724 38.1098 109.802 38.1496 109.656 38.3232C109.52 38.4854 109.11 38.563 108.746 38.4957C108.285 38.4108 107.074 39.1753 104.771 41.0051C101.622 43.507 100.666 44.4637 102.121 43.6572C102.485 43.4552 101.938 43.9407 100.905 44.7361C99.8715 45.5312 98.9425 46.1819 98.8407 46.1819C98.7385 46.1819 99.3272 45.65 100.149 44.9996C101.084 44.2598 100.829 44.3867 99.4691 45.3378C97.4468 46.7517 96.4534 47.8367 97.9567 46.9895C98.3209 46.7842 98.2062 46.9564 97.7015 47.3726C96.6824 48.2128 96.1547 48.4042 96.9573 47.6425C97.3752 47.2461 97.3131 47.2541 96.6253 47.6856C95.7538 48.232 95.4403 48.873 96.2172 48.5202C96.4901 48.3961 96.5511 48.444 96.3799 48.6474C96.2293 48.8265 95.9431 48.8991 95.7439 48.8084C95.5448 48.718 94.7206 49.6776 93.9128 50.9409C92.8168 52.6543 92.5234 53.3919 92.7573 53.8445C93.0239 54.3595 92.8179 54.5826 91.3971 55.3184C90.476 55.7955 89.7227 56.3211 89.7227 56.4861C89.7227 56.6524 89.9339 56.6933 90.1959 56.5776C90.5173 56.4357 90.5025 56.5194 90.1497 56.8394C89.5731 57.3618 89.1563 57.4801 89.5523 57.0091C90.0978 56.3606 86.395 58.286 84.5172 59.627C82.6346 60.9721 81.7661 61.9859 83.1922 61.1744C83.7317 60.8672 83.7207 60.9128 83.1335 61.4183C82.348 62.0952 81.9376 62.2463 82.3908 61.6918C82.5839 61.4556 82.4699 61.4665 82.0345 61.7258C81.2952 62.1664 81.1619 62.727 81.8672 62.4288C82.1421 62.3125 82.2083 62.3347 82.0251 62.4819C81.8513 62.621 81.525 62.7351 81.2993 62.7351C81.0737 62.7351 80.8102 62.909 80.7141 63.1215C80.5941 63.3858 80.7038 63.4378 81.0608 63.2856C81.3694 63.1543 81.4542 63.1668 81.2679 63.3165C81.0942 63.4556 80.7678 63.5697 80.5422 63.5697C80.3166 63.5697 80.0531 63.7436 79.9569 63.9561C79.8369 64.2204 79.9467 64.2724 80.3037 64.1203C80.6122 63.9889 80.697 64.0015 80.5108 64.1511C80.337 64.2902 80.0815 64.4051 79.9429 64.4063C79.5401 64.4093 77.2296 66.0009 77.2296 66.2749C77.2296 66.4118 77.4428 66.4335 77.7029 66.3236C77.9777 66.2073 78.044 66.2296 77.8607 66.3768C77.687 66.5159 77.3606 66.6299 77.135 66.6299C76.9094 66.6299 76.6459 66.8038 76.5497 67.0164C76.4297 67.2807 76.5395 67.3327 76.8965 67.1805C77.205 67.0492 77.2898 67.0617 77.1036 67.2114C76.9298 67.3505 76.6035 67.4646 76.3778 67.4646C76.1522 67.4646 75.8887 67.6384 75.7926 67.851C75.6756 68.1086 75.7793 68.164 76.1034 68.0168C76.4244 67.8707 76.4963 67.9063 76.3154 68.1217C76.1647 68.3008 75.8914 68.3793 75.7081 68.2958C75.5249 68.2126 75.1959 68.3901 74.9771 68.6903C74.4517 69.412 74.4751 69.6281 75.0528 69.3839C75.3277 69.2676 75.3939 69.2898 75.2107 69.437C75.0369 69.5761 74.7106 69.6902 74.485 69.6902C74.2593 69.6902 73.9958 69.8641 73.8997 70.0766C73.7797 70.3409 73.8895 70.3929 74.2465 70.2408C74.555 70.1094 74.6398 70.122 74.4535 70.2716C74.2798 70.4107 73.9534 70.5248 73.7278 70.5248C73.5022 70.5248 73.2387 70.6987 73.1425 70.9112C73.0225 71.1755 73.1323 71.2275 73.4893 71.0754C73.7978 70.9441 73.8827 70.9566 73.6964 71.1062C73.5226 71.2453 73.2065 71.3594 72.9934 71.3594C72.4141 71.3594 69.752 75.0929 69.4435 76.3379C69.225 77.2187 69.2731 77.38 69.7005 77.2011C69.9894 77.0798 69.5525 77.4999 68.7295 78.1345C67.2322 79.2888 66.726 79.5706 67.2333 78.9669C67.4067 78.7613 67.3367 78.7215 67.0391 78.8567C66.6545 79.0315 63.9795 82.9803 63.9795 83.3734C63.9795 83.4399 64.1926 83.4065 64.4527 83.2994C65.0198 83.0662 64.5068 83.4427 61.5479 85.4315C60.3145 86.2606 59.4528 86.7511 59.633 86.5215C59.9154 86.1618 59.8723 86.1568 59.3199 86.4859C58.5817 86.9261 58.4451 87.4925 59.1526 87.1801C59.474 87.0382 59.4593 87.1219 59.1064 87.4419C58.5011 87.9902 58.1259 88.0717 58.5405 87.5648C58.7335 87.3286 58.6196 87.3395 58.1842 87.5988C57.4679 88.0258 57.2983 88.6131 57.9809 88.3034C58.2539 88.1794 58.3148 88.2272 58.1437 88.4306C57.993 88.6097 57.7174 88.6871 57.5312 88.6022C57.0447 88.3813 55.2919 91.0527 55.1783 92.1872C55.1261 92.7135 54.9637 93.0902 54.8179 93.0246C54.6722 92.9586 54.3742 93.1503 54.1554 93.4505C53.6386 94.1602 53.6519 94.3922 54.1951 94.1457C54.4681 94.0217 54.5291 94.0695 54.3579 94.2729C54.2073 94.452 53.9339 94.5305 53.7507 94.447C53.5675 94.3639 53.2385 94.5413 53.0197 94.8415C52.5029 95.5512 52.5162 95.7832 53.0594 95.5368C53.3324 95.4127 53.3933 95.4605 53.2222 95.6639C53.0715 95.8431 52.7971 95.921 52.6119 95.8369C52.1406 95.6227 51.1783 97.0889 50.8747 98.4835C50.688 99.342 50.7607 99.7193 51.148 99.8996C51.5356 100.08 51.55 100.156 51.2025 100.184C50.9424 100.206 50.5294 100.239 50.2852 100.258C49.7257 100.302 45.0839 107.573 44.97 108.584C44.9234 108.997 44.6986 109.334 44.4703 109.334C43.9191 109.334 42.8515 110.999 41.9732 113.229C41.3046 114.925 41.3004 115.059 41.9028 115.385C42.2859 115.593 42.3631 115.747 42.0943 115.768C41.8464 115.787 41.4307 115.818 41.1702 115.837C40.9101 115.857 40.5471 116.373 40.3642 116.985C40.181 117.597 39.4996 119.128 38.8499 120.387C37.9376 122.154 37.4958 122.684 36.9112 122.714L36.1541 122.753L36.9112 122.89C37.3277 122.965 37.8921 123.16 38.1655 123.323C38.5607 123.559 38.6118 123.472 38.4153 122.896C38.279 122.498 38.3203 121.972 38.5069 121.727C38.7439 121.416 38.831 121.64 38.7962 122.472C38.7689 123.126 38.9957 123.975 39.2993 124.357C39.6726 124.827 39.5192 124.759 38.8276 124.149C37.6025 123.068 36.1352 122.895 36.4698 123.87C36.6811 124.488 36.6758 124.489 36.0844 123.94L35.4844 123.384L35.7759 123.94C35.936 124.246 36.2923 124.935 36.5671 125.47C36.8423 126.006 37.0755 127.508 37.0861 128.809C37.0964 130.109 37.2906 131.674 37.5177 132.286C38.2124 134.158 40.181 137.442 40.5172 137.29C40.6913 137.21 40.9571 137.292 41.1078 137.471C41.2887 137.687 41.2168 137.722 40.8958 137.576C40.5694 137.428 40.4725 137.483 40.6005 137.742C40.7057 137.955 40.9669 138.101 41.1812 138.068C41.3955 138.034 41.8002 138.222 42.0803 138.485C42.5399 138.916 42.5251 138.926 41.9274 138.581C41.2993 138.219 41.0835 138.341 41.2493 138.963C41.2899 139.116 40.8416 138.904 40.2529 138.491C39.032 137.635 37.5961 137.604 37.791 138.438C37.8584 138.727 38.3631 139.276 38.912 139.659L39.9099 140.354L39.1675 139.671C38.7594 139.295 39.4905 139.658 40.7916 140.478C43.1206 141.944 43.4364 142.195 42.8738 142.13C41.9948 142.027 41.952 142.232 42.7792 142.58C43.2997 142.798 43.5155 142.982 43.2584 142.987C43.0014 142.993 42.2348 142.611 41.5549 142.139C40.8749 141.667 40.5194 141.356 40.7655 141.448C41.0112 141.54 41.3194 141.488 41.4504 141.332C41.668 141.074 41.1558 140.925 40.3851 141.023C40.2132 141.045 40.1806 140.935 40.3127 140.778C40.4445 140.621 40.2688 140.493 39.9224 140.493C39.4163 140.493 39.3209 140.711 39.436 141.599C39.5987 142.854 39.1373 142.743 38.8901 141.467C38.7299 140.641 38.7276 140.642 38.6716 141.579C38.6247 142.359 38.8916 142.714 40.1795 143.588C41.8286 144.706 41.9016 145.042 41.0161 147.422C40.8265 147.932 40.8855 148.038 41.2637 147.866C41.5954 147.716 41.6692 147.749 41.4863 147.966C41.3357 148.145 41.054 148.22 40.8602 148.132C40.6663 148.044 40.5077 148.086 40.5077 148.225C40.5077 148.364 38.6765 148.566 36.438 148.675C34.1999 148.783 31.6869 148.986 30.854 149.125C29.3923 149.37 29.4056 149.374 31.2326 149.24C32.2737 149.164 34.6587 149.057 36.5327 149.003C38.4066 148.948 39.3436 148.952 38.6148 149.011C37.8861 149.069 35.5862 149.252 33.504 149.417C31.4219 149.581 28.9517 149.958 28.0147 150.253L26.3111 150.79L27.2575 150.213C28.0813 149.711 28.0961 149.675 27.3715 149.936C26.3789 150.292 25.3646 151.291 25.3646 151.913C25.3646 152.158 25.7905 152.653 26.3111 153.012C26.8316 153.372 27.2575 153.873 27.2575 154.125C27.2575 154.378 27.6834 154.879 28.204 155.238C29.0633 155.831 29.1497 156.098 29.144 158.138C29.136 160.852 28.3755 163.65 27.0811 165.728C25.9798 167.496 25.953 167.583 26.595 167.312C26.8699 167.196 26.9361 167.218 26.7529 167.365C26.5791 167.504 26.2528 167.618 26.0272 167.618C25.8015 167.618 25.538 167.792 25.4419 168.005C25.3204 168.272 25.4275 168.32 25.7887 168.16C26.232 167.964 26.2323 168 25.7917 168.399C25.1996 168.935 24.8025 169.035 25.2159 168.544C25.3665 168.365 24.0563 169.276 22.3042 170.569C20.5495 171.863 16.8315 174.104 14.0289 175.555C9.43679 177.933 3.4072 181.925 3.4072 182.588C3.4072 182.731 3.70514 182.683 4.06971 182.48C4.64174 182.162 4.66483 182.167 4.24007 182.515C3.96939 182.738 3.5575 182.919 3.32505 182.919C3.0926 182.919 2.82344 183.093 2.72728 183.306C2.60727 183.57 2.71706 183.622 3.07405 183.47C3.38259 183.339 3.46739 183.351 3.28113 183.501C3.10737 183.64 2.78103 183.754 2.5554 183.754C2.32977 183.754 2.06628 183.928 1.97012 184.14C1.85314 184.398 1.95687 184.453 2.28093 184.306C2.60197 184.16 2.6739 184.196 2.49294 184.411C2.34226 184.59 2.06704 184.668 1.88116 184.583C1.69528 184.499 1.2107 184.909 0.804107 185.494C0.17037 186.407 0.06664 187.132 0.0749687 190.581C0.083676 194.253 0.162798 194.717 0.98166 195.906C1.47495 196.622 2.0784 197.298 2.32258 197.409C2.62317 197.546 2.66898 197.484 2.46454 197.22C2.29835 197.005 2.91089 197.347 3.82591 197.98C4.74055 198.613 6.00045 199.328 6.6251 199.569C7.3073 199.832 7.51249 200.011 7.13921 200.018C6.79735 200.024 5.64762 199.454 4.58382 198.751C3.52039 198.048 2.65005 197.606 2.65005 197.768C2.65005 197.931 3.55598 198.566 4.66294 199.18L6.67583 200.297L38.4888 200.293L70.3013 200.288L71.8724 199.439C72.7367 198.972 73.4439 198.461 73.4439 198.303C73.4439 198.146 72.7621 198.47 71.9284 199.023C71.0952 199.576 70.3002 200.029 70.1616 200.029C70.0234 200.029 69.9814 199.989 70.0681 199.94C70.1552 199.892 71.1611 199.234 72.3036 198.48C73.4462 197.725 74.1276 197.358 73.8179 197.664C73.2902 198.186 73.2981 198.195 73.9481 197.82C75.0721 197.17 76.7799 194.396 77.2777 192.409C77.634 190.988 77.6396 190.165 77.3016 188.828C76.8231 186.935 74.6561 183.476 73.9485 183.476C73.7059 183.476 73.3651 183.362 73.1914 183.223C73.0081 183.075 73.0744 183.053 73.3492 183.169C73.6097 183.279 73.8225 183.265 73.8225 183.137C73.8225 182.639 68.4391 179.084 62.8437 175.888C59.6164 174.044 56.0524 171.842 54.9239 170.994C53.7954 170.146 52.7497 169.508 52.6006 169.575C52.4514 169.643 52.0971 169.488 51.8131 169.231C51.3763 168.835 51.3774 168.799 51.8196 168.994C52.1807 169.154 52.2879 169.106 52.1664 168.839C52.0702 168.627 51.8067 168.453 51.5811 168.453C51.3554 168.453 51.0291 168.339 50.8553 168.2C50.6691 168.05 50.7539 168.037 51.0624 168.169C51.4194 168.321 51.5292 168.269 51.4092 168.005C51.313 167.792 51.0496 167.618 50.8239 167.618C50.5983 167.618 50.272 167.504 50.0982 167.365C49.9112 167.215 50.0017 167.205 50.3204 167.341C50.7414 167.52 50.7895 167.455 50.5423 167.038C48.8765 164.228 48.3571 162.462 48.175 158.994C47.9956 155.567 48.0278 155.349 48.7895 154.847C49.8029 154.179 49.9093 152.947 48.931 153.205C48.217 153.393 48.2583 153.349 49.3823 152.725C50.0316 152.364 50.0785 152.366 49.7828 152.734C49.4944 153.094 49.5364 153.099 50.0887 152.77C50.4412 152.56 50.7293 152.203 50.7293 151.977C50.7293 151.538 48.5873 149.84 47.7911 149.648C47.4349 149.562 47.6049 148.848 48.4605 146.837C49.0912 145.353 49.5618 143.992 49.5057 143.812C49.307 143.169 50.2845 143.261 51.3501 143.985L52.4329 144.72L51.3407 144.137C50.7399 143.816 50.0584 143.554 49.8264 143.555C49.5943 143.556 49.8525 143.775 50.4003 144.042C50.9481 144.309 52.2837 145.059 53.3683 145.71C55.0753 146.733 55.583 146.892 57.148 146.892C58.4038 146.892 59.2605 146.716 59.9533 146.315C61.3995 145.479 61.1897 145.249 59.1106 145.391C57.0905 145.529 55.0814 145.118 55.4766 144.648C55.6141 144.485 56.2633 144.386 56.919 144.428C57.5751 144.47 59.3552 144.403 60.8751 144.278C62.9713 144.105 63.9083 143.884 64.7555 143.36C65.8576 142.678 66.3183 141.941 65.3991 142.33C65.1243 142.446 65.058 142.424 65.2413 142.276C65.415 142.137 65.7414 142.023 65.967 142.023C66.1926 142.023 66.4561 141.849 66.5523 141.637C66.6587 141.402 66.5595 141.327 66.3001 141.445C65.6444 141.742 65.7921 141.444 66.5129 141.014C67.0652 140.685 67.1073 140.69 66.8188 141.05C66.5303 141.41 66.5723 141.414 67.1247 141.085C67.864 140.645 67.9973 140.084 67.292 140.382C67.0172 140.498 66.9509 140.476 67.1341 140.329C67.3079 140.19 67.6464 140.076 67.8864 140.076C68.1264 140.076 68.3766 139.825 68.4429 139.519C68.5129 139.195 68.4364 139.085 68.2589 139.257C68.0579 139.45 67.7077 139.363 67.2261 139C66.6738 138.582 66.6435 138.49 67.1004 138.619C67.4325 138.713 67.7872 138.627 67.8909 138.428C68.009 138.202 69.0425 138.017 70.667 137.931C73.3704 137.788 75.743 137.096 76.9828 136.089C77.3674 135.777 77.5677 135.385 77.428 135.218C77.2879 135.052 77.3701 134.95 77.6101 134.992C78.1443 135.085 79.6151 132.489 79.3334 131.949C79.2221 131.736 79.2933 131.635 79.4909 131.725C79.6889 131.815 80.1981 131.388 80.6225 130.777C81.4148 129.635 81.6703 128.898 81.0154 129.643C80.7709 129.921 80.6467 129.945 80.6425 129.713C80.6334 129.151 79.9047 129.307 78.2306 130.229C77.2024 130.794 77.0123 130.852 77.6786 130.396C78.2382 130.014 78.6069 129.635 78.4983 129.555C78.1973 129.334 79.8445 128.76 80.2507 128.944C81.2679 129.406 85.5182 125.406 85.0211 124.455C84.9049 124.232 84.9719 124.124 85.1695 124.214C85.6117 124.414 86.8341 122.703 87.4512 121.019C87.703 120.332 88.2299 119.308 88.6222 118.742C89.2835 117.789 89.4323 117.726 90.6551 117.872C92.0994 118.044 94.2368 117.455 95.6853 116.485C96.5935 115.877 96.8535 115.286 96.0638 115.625C95.8038 115.737 95.9151 115.557 96.3118 115.224C97.1727 114.503 97.602 114.414 96.8789 115.107C96.5995 115.375 96.8339 115.29 97.4002 114.92C98.3819 114.277 98.8494 113.562 98.0514 113.925C97.435 114.205 97.6198 113.885 98.3133 113.472C98.804 113.179 98.8838 113.175 98.6556 113.455C98.4913 113.655 99.4559 113.029 100.799 112.063C103.026 110.462 103.441 109.7 101.872 110.093C101.476 110.192 101.528 110.096 102.022 109.814C102.436 109.577 102.893 109.437 103.038 109.503C103.181 109.568 103.564 109.344 103.887 109.005C104.343 108.528 104.37 108.339 104.008 108.17C103.182 107.784 103.864 107.929 106.191 108.634C109.131 109.524 111.399 109.529 113.793 108.652L115.655 107.969L114.519 108.676C113.895 109.066 113.724 109.259 114.141 109.106C115.045 108.775 116.345 107.758 116.928 106.925C117.303 106.39 117.257 106.332 116.502 106.404C116.036 106.448 115.144 106.686 114.519 106.934C113.14 107.48 109.671 107.51 108.084 106.989L106.948 106.616L108.462 106.745C109.295 106.816 111.169 106.672 112.627 106.424C114.084 106.176 115.558 105.97 115.902 105.965C116.246 105.961 117.21 105.528 118.044 105.003C119.54 104.062 119.613 104.048 123.287 104.021C125.336 104.006 127.949 103.901 129.095 103.787C130.401 103.658 128.919 103.609 125.12 103.657L119.062 103.732L124.598 103.498C132.814 103.151 136.636 102.256 140.391 99.7994L142.156 98.6451L140.697 99.788C139.056 101.074 136.397 102.223 133.28 102.992C131.81 103.355 131.576 103.467 132.502 103.362C134.975 103.084 139.071 101.372 141.178 99.7346C142.569 98.6535 143.098 98.0437 142.928 97.7173C142.793 97.46 142.811 97.3429 142.966 97.4575C143.258 97.6717 148.023 94.3716 148.023 93.9552C148.023 93.8269 147.811 93.8136 147.55 93.9254C147.29 94.0372 147.401 93.8567 147.798 93.5245C148.662 92.8006 149.066 92.7219 148.401 93.4071C148.142 93.6747 148.386 93.534 148.945 93.0941C149.504 92.6543 149.872 92.1237 149.763 91.9151C149.654 91.7067 149.758 91.5657 149.995 91.6021C150.725 91.7145 151.868 88.9934 152.012 86.7998L152.149 84.7132L151.814 86.7998C151.631 87.9473 151.301 89.1993 151.083 89.5818C150.757 90.1527 150.736 90.0778 150.963 89.1645C151.116 88.5524 151.24 87.0841 151.239 85.9011C151.238 84.7185 151.354 83.9674 151.497 84.2319C151.693 84.5955 151.76 84.6111 151.774 84.2959C151.839 82.8234 148.889 80.1985 146.265 79.3926C144.858 78.9605 142.794 78.8974 142.01 79.2626C141.687 79.4129 142.15 79.4515 143.214 79.3633C145.13 79.2048 147.722 79.937 149.015 81.002C149.475 81.3817 149.124 81.2788 148.019 80.7101C146.203 79.7751 144.138 79.3848 142.555 79.6769C141.055 79.9534 141.323 80.6793 142.925 80.6793C144.753 80.6793 146.48 81.2696 147.834 82.3574C148.459 82.8587 148.728 83.1667 148.432 83.0415C148.015 82.8646 147.961 82.9324 148.19 83.3461C149.79 86.2389 148.806 90.0386 145.686 93.0121L144.469 94.1722L145.584 93.4806C146.296 93.0388 146.158 93.2146 145.202 93.9674C144.379 94.6156 143.69 95.1459 143.67 95.1459C143.651 95.1459 143.597 94.7297 143.551 94.2208C143.504 93.7123 143.301 92.8755 143.101 92.3616C142.901 91.8475 142.806 91.3757 142.891 91.3128C143.111 91.152 143.855 93.2068 143.857 93.9799C143.858 94.3332 144.014 94.5519 144.203 94.4659C144.617 94.2782 143.869 92.0517 142.955 90.755C142.602 90.2528 142.161 89.9106 141.976 89.9947C141.791 90.0787 141.517 90.0008 141.366 89.8216C141.195 89.6182 141.256 89.5704 141.529 89.6945C141.769 89.8035 141.966 89.7687 141.966 89.6169C141.966 89.15 138.831 87.448 137.306 87.0871C136.166 86.8173 135.629 86.8176 134.739 87.0885C134.12 87.2769 133.689 87.4869 133.782 87.5554C133.875 87.6235 134.327 87.532 134.785 87.3517C135.949 86.8938 138.375 87.4307 140.073 88.5213L141.398 89.3726L140.073 88.6888C137.879 87.5565 136.35 87.2816 134.489 87.685C133.605 87.877 132.88 88.1073 132.88 88.1972C132.88 88.2868 133.605 88.39 134.489 88.4264C136.931 88.5268 138.739 88.9569 139.54 89.6285C139.937 89.9615 140.05 90.1424 139.789 90.0305C139.209 89.781 139.207 89.7526 139.873 91.1119C140.587 92.568 140.591 94.3622 139.884 95.6063C139.457 96.3572 139.438 96.545 139.807 96.3625C140.077 96.2289 139.985 96.3316 139.602 96.5906C137.659 97.9065 130.895 99.0405 125.309 98.9871L121.712 98.9526L126.255 98.7611C130.398 98.5867 135.413 98.0272 135.073 97.7774C134.997 97.7215 133.578 97.8531 131.92 98.0701C130.262 98.2874 127.259 98.4693 125.246 98.4746C122.697 98.4813 121.52 98.5901 121.369 98.8321C121.249 99.0235 121.247 98.8983 121.363 98.5539C121.523 98.0795 121.408 97.9254 120.886 97.9171C120.481 97.9107 120.742 97.7326 121.52 97.4847C122.248 97.253 123.265 96.7884 123.781 96.4523C124.495 95.9863 124.586 95.9677 124.162 96.3733C123.856 96.666 123.094 97.135 122.47 97.4155C121.845 97.6962 121.569 97.9263 121.857 97.9268C122.144 97.9274 123.124 97.381 124.034 96.7127C125.295 95.7855 125.687 95.2867 125.687 94.6098C125.687 93.9766 125.552 93.7805 125.214 93.9254C124.954 94.0372 125.065 93.8567 125.462 93.5245C126.322 92.804 126.76 92.7116 126.018 93.4071C125.544 93.8511 125.558 93.8595 126.178 93.5017C126.552 93.2858 126.767 92.935 126.655 92.7222C126.544 92.5091 126.616 92.4092 126.816 92.4996C127.015 92.5903 127.45 92.19 127.782 91.6099C128.499 90.3577 128.141 88.9792 127.069 88.8638C126.687 88.8226 126.263 88.6971 126.126 88.5847C125.989 88.4723 126.161 88.4551 126.508 88.5463C126.886 88.6456 127.227 88.5424 127.36 88.2895C127.683 87.6708 127.635 87.5784 127.107 87.8016C126.832 87.9179 126.766 87.8956 126.949 87.7484C127.123 87.6093 127.457 87.4953 127.691 87.4953C127.925 87.4953 128.363 87.0193 128.665 86.4372C129.17 85.4613 129.155 85.3228 128.468 84.6465C128.058 84.2433 127.478 83.8602 127.179 83.7946C126.879 83.7292 126.975 83.8717 127.391 84.1112C128.137 84.5399 128.135 84.5441 127.296 84.3888C126.506 84.2422 126.44 84.3282 126.385 85.5848L126.326 86.9389L126.066 85.5478L125.806 84.1568L125.747 85.3164C125.714 85.9543 125.573 86.6946 125.434 86.9617C125.242 87.3286 125.312 87.3912 125.718 87.2179C126.013 87.0916 125.842 87.3214 125.338 87.7287C124.833 88.1357 124.066 88.4662 123.634 88.4629C122.447 88.4537 119.916 87.5189 119.062 86.7742C118.348 86.1507 118.346 86.1371 119.039 86.5263C119.696 86.896 119.748 86.8921 119.542 86.4876C119.391 86.1894 119.688 85.8327 120.421 85.4346C121.687 84.7469 125.064 80.0472 124.806 79.3325C124.681 78.985 124.629 79.0125 124.596 79.4437C124.571 79.7587 124.301 80.2594 123.995 80.5566C123.491 81.0456 123.481 81.0123 123.884 80.203C124.128 79.7117 124.239 79.244 124.13 79.1639C124.021 79.084 123.262 79.274 122.444 79.5865C120.622 80.282 118.665 80.134 116.318 79.123C115.433 78.7418 114.709 78.3846 114.709 78.3293C114.709 78.2736 115.679 78.4144 116.864 78.6417C118.199 78.8979 119.819 78.9972 121.123 78.9026C122.28 78.8189 123.53 78.7385 123.9 78.7243C124.27 78.7101 124.78 78.4556 125.033 78.1587C125.285 77.8619 125.711 77.619 125.98 77.619C126.738 77.619 129.967 76.3487 130.677 75.7706C131.684 74.9519 132.11 73.8594 131.762 72.9855C131.482 72.278 131.452 72.3195 131.488 73.377C131.514 74.1723 131.315 74.6965 130.88 74.9775C130.524 75.2073 130.403 75.2448 130.61 75.0606C130.818 74.8765 130.988 74.1874 130.988 73.5294C130.988 72.0502 130.119 71.8997 129.301 73.2373L128.747 74.1415L128.927 73.3068C129.073 72.6277 129.04 72.576 128.749 73.0286C128.212 73.8624 128.247 74.6303 128.811 74.3882C129.071 74.2764 128.959 74.4569 128.563 74.7891C128.166 75.1216 127.433 75.3934 126.935 75.3934C125.818 75.3934 124.111 74.766 123.388 74.0903C122.901 73.6343 122.909 73.6201 123.477 73.9464C123.9 74.1893 124.186 74.2121 124.351 74.016C124.486 73.8555 124.921 73.7241 125.318 73.7241C125.715 73.7241 126.617 73.3514 127.323 72.8959C128.029 72.4402 128.705 72.1395 128.824 72.2274C128.944 72.315 129.391 71.8838 129.818 71.2687C130.391 70.443 130.473 70.1133 130.129 70.0087C129.872 69.9308 130.259 69.9523 130.988 70.0569C131.716 70.1612 134.101 70.2466 136.288 70.2466C140.001 70.2466 140.424 70.1879 142.723 69.3516C144.077 68.8595 145.61 68.251 146.131 67.9998L147.077 67.5427L146.131 68.11C143.892 69.4509 143.699 69.582 144.238 69.3894C145.306 69.008 148.023 67.2887 148.023 66.9947C148.023 66.8222 147.75 66.8583 147.361 67.0829C146.761 67.4284 146.748 67.4186 147.214 66.9808C147.498 66.7148 147.874 66.5623 148.05 66.6422C148.495 66.8442 149.628 65.1543 149.305 64.7704C149.149 64.5837 149.212 64.5345 149.463 64.6486C149.953 64.8711 151.191 63.2831 150.916 62.7857C150.815 62.6049 150.72 62.6686 150.703 62.9273C150.687 63.186 150.528 63.464 150.349 63.5449C150.172 63.6259 150.106 63.3813 150.205 63.0016C150.358 62.4143 150.258 62.3253 149.539 62.406C149.073 62.4583 148.375 62.8041 147.988 63.1744C147.191 63.9361 147.049 64.3965 147.704 64.0997C147.977 63.9756 148.037 64.0234 147.866 64.2268C147.716 64.406 147.457 64.4908 147.291 64.4154C147.125 64.34 146.668 64.544 146.276 64.8686C145.124 65.8223 142.38 66.5607 139.13 66.7916L136.098 67.0069L139.189 66.9354C141.621 66.8792 142.709 66.7089 144.299 66.1361C145.835 65.5833 146.104 65.5388 145.423 65.9514C142.986 67.427 136.886 67.7005 132.502 66.5306C131.357 66.2252 130.697 65.9659 131.036 65.9547C131.375 65.9436 131.847 65.7619 132.085 65.5513C132.389 65.282 133.84 65.1262 136.958 65.028C141.7 64.8784 144.308 64.3904 146.368 63.2659C147.019 62.9106 147.653 62.6945 147.777 62.7857C148.061 62.9949 148.849 61.5115 148.607 61.2233C148.508 61.1062 147.871 61.0227 147.189 61.038C146.3 61.0581 145.913 61.2119 145.816 61.5855C145.72 61.9486 145.833 62.0468 146.189 61.911C146.469 61.8039 146.239 62.0276 145.678 62.4082C144.161 63.4359 141.535 63.7555 137.641 63.3861C135.855 63.2166 134.401 63.001 134.408 62.9067C134.416 62.8124 134.665 62.4221 134.963 62.0396C135.563 61.2678 135.745 61.5037 135.164 62.3011C134.848 62.7348 134.992 62.8277 136.205 62.9752C136.979 63.0692 138.124 63.1321 138.748 63.1145C139.434 63.0956 139.086 62.9977 137.872 62.8678C135.503 62.6141 135.497 62.611 135.779 61.8187C135.926 61.4058 136.288 61.205 136.885 61.205C138.64 61.205 142.04 60.0309 143.729 58.8416C144.659 58.1867 146.134 57.4489 147.006 57.2024C148.984 56.643 152.188 54.6532 152.188 53.9842C152.188 53.4266 151.17 52.6794 150.79 52.9581C150.657 53.0566 150.775 53.137 151.052 53.137C151.33 53.137 151.452 53.2138 151.324 53.3078C151.197 53.4019 150.625 53.2085 150.053 52.8783L149.015 52.2779L149.897 52.1085C150.382 52.0153 151.564 51.6428 152.524 51.2806C153.484 50.9183 153.929 50.826 153.513 51.0753C153.096 51.3245 152.101 51.7505 151.3 52.0217C150.499 52.2932 149.991 52.5817 150.17 52.6632C150.591 52.8541 154.549 50.8941 154.769 50.3859C154.88 50.1291 154.773 50.0734 154.45 50.2201C154.129 50.3661 154.057 50.3305 154.238 50.1152C154.388 49.936 154.674 49.8631 154.872 49.9533C155.38 50.1842 156.361 48.3269 156.307 47.2341C156.272 46.4907 156.206 46.5736 155.953 47.6806C155.782 48.4281 155.457 49.1765 155.23 49.3434C154.934 49.5607 154.936 49.3974 155.234 48.7687C155.721 47.7407 155.588 46.4078 154.983 46.262C154.75 46.2061 154.447 46.572 154.309 47.0752C154.112 47.7927 153.98 47.9001 153.696 47.5729C153.384 47.2127 153.335 47.2188 153.329 47.6197C153.326 47.8751 153.21 48.3024 153.07 48.5695C152.888 48.9183 152.952 48.9937 153.297 48.8368C153.674 48.6657 153.687 48.7425 153.359 49.1932C153.129 49.509 152.729 49.8556 152.47 49.963C152.097 50.1174 152.098 50.0801 152.472 49.7838C153.246 49.1707 153.009 48.8354 152.187 49.3821C151.769 49.6595 150.79 49.9878 150.01 50.1116C148.618 50.3325 148.623 50.3344 150.275 50.2256C151.392 50.1522 151.774 50.2009 151.411 50.3697C149.947 51.0505 146.382 50.2223 144.584 48.7834C143.899 48.2348 144.127 48.3049 145.497 49.0641C146.502 49.6211 147.609 50.0687 147.958 50.0593C148.365 50.0478 148.253 49.9432 147.645 49.766C147.124 49.6147 146.051 49.028 145.261 48.4624C144.47 47.8968 143.724 47.4964 143.603 47.5729C143.482 47.6494 143.134 47.4358 142.829 47.098C142.285 46.4957 142.297 46.4888 143.49 46.7403C144.386 46.9292 144.994 46.8874 145.797 46.5823C146.397 46.3541 146.888 46.2303 146.888 46.3071C146.888 46.3839 146.249 46.6947 145.468 46.9976C144.687 47.3006 144.187 47.5537 144.357 47.5607C145.235 47.5955 148.023 46.0609 148.023 45.5429C148.023 45.3979 147.725 45.4489 147.361 45.6561C146.821 45.9633 146.832 45.9176 147.42 45.4121C148.205 44.7353 148.616 44.5842 148.162 45.1387C147.969 45.3748 148.083 45.364 148.519 45.1047C149.258 44.664 149.391 44.1035 148.686 44.4017C148.411 44.518 148.345 44.4957 148.528 44.3486C148.702 44.2095 149.028 44.0954 149.254 44.0954C149.479 44.0954 149.743 43.9215 149.839 43.709C149.96 43.4436 149.851 43.3932 149.492 43.5482C149.205 43.6722 149.294 43.5017 149.691 43.1695C150.552 42.4484 150.985 42.358 150.253 43.0521C149.835 43.4486 149.897 43.4405 150.585 43.009C151.49 42.442 151.609 42.0901 151.098 41.4978C150.842 41.2001 150.393 41.2697 148.845 41.8455C146.318 42.7867 143.937 42.7937 141.398 41.8678C140.357 41.4883 139.917 41.2546 140.421 41.3487C141.76 41.5988 148.781 41.6277 148.781 41.3829C148.781 41.2683 149.044 41.1742 149.367 41.1742C149.69 41.1742 150.499 40.9803 151.166 40.7436C152.259 40.3547 152.306 40.3547 151.642 40.7436C151.238 40.9803 151.08 41.1742 151.292 41.1742C151.868 41.1742 153.079 40.0917 154.21 38.5658C155.351 37.0282 155.406 36.8846 154.743 37.1773C154.422 37.3192 154.437 37.2354 154.789 36.9155C155.397 36.3655 155.758 36.2895 155.375 36.7925C155.229 36.9839 155.432 36.9166 155.826 36.6434C156.408 36.2389 156.445 36.1026 156.023 35.9109C155.658 35.7451 156.164 35.4944 157.726 35.0668C158.948 34.7324 160.46 34.1232 161.084 33.7131L162.22 32.9672L161.118 33.8639C160.49 34.3752 159.218 34.9555 158.159 35.2137C157.138 35.463 156.373 35.7181 156.458 35.7807C156.869 36.0823 160.109 34.9149 161.368 34.0116C162.751 33.0201 163.266 32.3145 162.315 32.7171C162.04 32.8334 161.974 32.8111 162.157 32.664C162.331 32.5249 162.667 32.4108 162.905 32.4108C163.143 32.4108 163.5 32.0703 163.7 31.6541C163.987 31.0546 163.917 30.7803 163.366 30.3326C162.984 30.0221 162.494 29.7679 162.278 29.7679C162.063 29.7679 162.214 29.9437 162.614 30.1587C163.294 30.5246 163.274 30.5404 162.308 30.4047C161.656 30.3131 161.274 30.3802 161.274 30.5863C161.274 30.7694 161.482 30.8253 161.747 30.7135C162.022 30.5972 162.088 30.6194 161.905 30.7666C161.731 30.9057 161.405 31.0198 161.179 31.0198C160.953 31.0198 160.69 31.1937 160.594 31.4062C160.472 31.6736 160.579 31.7214 160.941 31.5614C161.379 31.3675 161.382 31.404 160.959 31.7868C159.969 32.6851 158.101 32.9046 155.545 32.423C153.577 32.0528 147.645 29.9543 147.645 29.6288C147.645 29.5737 148.965 29.8808 150.579 30.3112C154.529 31.365 156.39 31.5656 158.142 31.1261C158.928 30.9291 159.8 30.8017 160.081 30.8428C160.408 30.891 160.489 30.7858 160.304 30.5516C160.146 30.3501 160.156 30.2781 160.326 30.3913C160.672 30.6214 161.652 30.1231 161.652 29.7175C161.652 29.574 161.439 29.5484 161.179 29.6602C160.919 29.772 161.03 29.5915 161.427 29.2593C162.291 28.5354 162.694 28.4567 162.03 29.1419C161.77 29.4098 162.015 29.2688 162.574 28.8289C163.133 28.3891 163.501 27.8591 163.392 27.651C163.282 27.4396 163.565 27.1327 164.032 26.9561C164.493 26.7819 165.379 26.3106 166 25.9086C167.024 25.2459 167.059 25.2398 166.378 25.8432C165.965 26.2094 165.116 26.741 164.492 27.0245C163.867 27.3083 163.6 27.5406 163.899 27.5411C164.621 27.5425 167.909 25.0167 168.181 24.2508C168.299 23.9186 168.241 23.7166 168.053 23.8026C167.864 23.8883 167.709 24.1314 167.709 24.3429C167.709 24.5543 167.539 24.8044 167.332 24.8987C167.087 25.0103 167.09 24.8078 167.343 24.3201C167.556 23.9078 167.634 23.4988 167.515 23.4117C167.397 23.3247 166.072 23.2604 164.571 23.2687C161.583 23.2851 161.589 23.2726 164.813 22.805C166.434 22.5699 167.447 22.2141 168.598 21.476L170.17 20.4683L169.034 21.3961C168.41 21.9066 167.388 22.4917 166.763 22.6967C165.835 23.0011 165.773 23.0712 166.424 23.0801C167.211 23.091 171.117 20.3551 171.117 19.7931C171.117 19.6443 171.778 19.1652 172.586 18.7284C174.281 17.8123 178.688 14.3167 178.688 13.8882C178.688 13.7294 178.552 13.6609 178.386 13.7363C178.22 13.8117 177.886 13.7836 177.644 13.6737C177.344 13.5371 177.452 13.3599 177.986 13.1151C178.416 12.9179 178.654 12.8909 178.516 13.055C178.108 13.5399 178.927 13.3958 179.494 12.8831C179.942 12.4772 179.935 12.4452 179.445 12.6494C179.107 12.7907 179.005 12.7843 179.193 12.6333C179.367 12.4942 179.622 12.3781 179.761 12.3759C180.235 12.3679 180.96 11.9302 180.96 11.6518C180.96 11.4987 180.747 11.4637 180.486 11.5736C180.212 11.6899 180.145 11.6676 180.329 11.5204C180.502 11.3813 180.829 11.2673 181.054 11.2673C181.28 11.2673 181.531 11.1196 181.613 10.939C181.715 10.715 181.312 10.6413 180.349 10.707C178.929 10.8041 178.978 10.7086 180.722 9.97836C181.284 9.74272 181.366 9.75885 181.122 10.0571C180.87 10.3645 180.93 10.3634 181.455 10.051C182.136 9.64507 182.356 9.0294 181.717 9.31985C180.842 9.7174 181.445 9.10841 182.853 8.17392C184.284 7.2233 184.921 6.40955 183.894 6.84411C183.619 6.9604 183.553 6.93814 183.736 6.79097C183.91 6.65187 184.236 6.5378 184.461 6.5378C184.687 6.5378 184.951 6.36393 185.047 6.15138C185.16 5.90127 185.058 5.83951 184.757 5.97611C184.397 6.13942 184.387 6.05707 184.708 5.61583C185.342 4.74533 185.226 4.67634 183.947 5.16264C183.295 5.41024 182.89 5.467 183.039 5.2895C183.187 5.11312 183.666 4.87136 184.104 4.75257C184.807 4.56116 184.912 4.276 185.019 2.26347L185.139 -0.00973511L183.985 0.0548083C183.351 0.0904184 182.468 0.404233 182.023 0.752545ZM182.445 0.999312C181.941 1.39575 181.187 1.85006 180.77 2.00864C180.354 2.16721 180.695 1.84784 181.528 1.29922C183.312 0.123246 183.737 -0.0155774 182.445 0.999312ZM176.985 1.78107C173.611 2.60038 169.149 3.93242 169.331 4.06624C169.407 4.12243 170.905 3.74463 172.659 3.22634C174.414 2.70832 176.615 2.12465 177.552 1.92991C178.489 1.73488 179.418 1.47142 179.616 1.34401C180.103 1.03075 180.015 1.04522 176.985 1.78107ZM175.281 4.53585C175.281 4.58231 174.642 5.05164 173.861 5.57911L172.442 6.5378L173.746 5.49454C174.961 4.5236 175.281 4.3233 175.281 4.53585ZM181.061 6.02479C180.805 6.10102 180.294 6.10575 179.926 6.03509C179.557 5.96442 179.767 5.90211 180.392 5.89654C181.016 5.89098 181.318 5.94857 181.061 6.02479ZM182.853 7.92883C182.363 8.31136 181.813 8.62434 181.63 8.62434C181.314 8.62434 183.239 7.26086 183.581 7.24222C183.669 7.23721 183.342 7.54629 182.853 7.92883ZM178.499 9.45895C178.082 9.59054 177.06 9.68791 176.227 9.67595L174.713 9.65369L176.417 9.45895C178.841 9.18186 179.376 9.18186 178.499 9.45895ZM152.764 11.8885C152.352 11.9653 150.99 12.5317 149.736 13.1474C148.482 13.763 147.646 14.1158 147.878 13.9311C148.844 13.1632 152.054 11.7166 152.756 11.7322C153.502 11.7488 153.503 11.7511 152.764 11.8885ZM175.092 14.1884C174.675 14.32 172.801 14.4129 170.927 14.3951L167.52 14.3629L170.738 14.1884C175.905 13.9083 175.979 13.9083 175.092 14.1884ZM147.266 14.2936C147.266 14.3512 146.968 14.5704 146.604 14.7804C146.003 15.1262 145.99 15.1165 146.461 14.6753C146.956 14.2118 147.266 14.0646 147.266 14.2936ZM175.27 16.574C173.923 17.58 172.309 18.5832 171.685 18.8036C171.06 19.0239 170.888 19.0459 171.302 18.8522C171.716 18.6589 173.25 17.6576 174.709 16.6274C176.169 15.5972 177.443 14.7521 177.541 14.7496C177.64 14.7471 176.617 15.568 175.27 16.574ZM142.03 19.5388C141.749 19.7453 141.7 19.6365 141.864 19.1738C141.998 18.7977 142.17 18.6714 142.265 18.8798C142.355 19.0806 142.25 19.3769 142.03 19.5388ZM141.598 21.1455C141.401 21.7598 141.272 21.8952 141.248 21.5141C141.209 20.9079 141.583 19.9345 141.795 20.0902C141.857 20.1362 141.768 20.611 141.598 21.1455ZM155.879 23.0044C155.515 23.0745 154.918 23.0745 154.554 23.0044C154.19 22.9346 154.488 22.8773 155.216 22.8773C155.945 22.8773 156.243 22.9346 155.879 23.0044ZM161.423 23.6947C161.244 23.908 161.35 23.9637 161.731 23.856C163.016 23.4938 165.817 23.3119 165.817 23.5912C165.817 23.9976 163.608 25.3099 162.853 25.3516C162.505 25.3711 161.409 25.4142 160.418 25.4476C159.426 25.481 158.489 25.6018 158.336 25.7158C158.181 25.8299 159.234 25.8521 160.674 25.7656C162.592 25.6502 163.68 25.4193 164.743 24.9021C165.542 24.5137 166.195 24.2586 166.195 24.3351C166.195 24.4116 165.53 24.7975 164.718 25.1928C163.523 25.7734 162.633 25.9395 160.08 26.0583C156.715 26.2149 156.628 26.1167 159.191 25.059C160.024 24.7154 160.375 24.6328 159.971 24.8754C159.567 25.118 159.383 25.3166 159.562 25.3166C160.012 25.3166 161.274 24.4525 161.274 24.1442C161.274 24.006 161.061 23.9868 160.8 24.1017C160.479 24.2436 160.494 24.1598 160.847 23.8399C161.438 23.3041 161.836 23.2039 161.423 23.6947ZM129.604 24.3548C129.48 24.591 129.298 24.7246 129.199 24.6517C129.1 24.5788 129.131 24.3854 129.268 24.2224C129.642 23.7784 129.86 23.8646 129.604 24.3548ZM128.295 25.3861C128.202 25.4245 126.769 26.3946 125.109 27.5422L122.091 29.6288L124.921 27.4727C126.477 26.2867 127.911 25.3166 128.107 25.3166C128.303 25.3166 128.388 25.3478 128.295 25.3861ZM130.868 26.4817C130.747 26.7034 130.657 26.6375 130.639 26.3134C130.623 26.0202 130.712 25.856 130.838 25.9484C130.963 26.0408 130.977 26.2809 130.868 26.4817ZM130.489 27.8727C130.368 28.0945 130.278 28.0285 130.26 27.7044C130.244 27.4112 130.333 27.2471 130.459 27.3394C130.585 27.4318 130.598 27.6719 130.489 27.8727ZM128.22 29.1419C128.125 29.4098 128.047 29.1906 128.047 28.655C128.047 28.1195 128.125 27.9003 128.22 28.1682C128.315 28.4361 128.315 28.874 128.22 29.1419ZM121.902 29.5723C121.902 29.6176 121.177 30.1498 120.293 30.7547L118.684 31.8544L120.18 30.672C121.572 29.5726 121.902 29.3617 121.902 29.5723ZM152.188 31.2504C152.708 31.473 153.847 31.8116 154.719 32.0024C156.138 32.3129 156.486 32.2867 158.032 31.7526C160.179 31.0109 160.292 30.7719 158.211 31.3725C156.69 31.8113 154.862 31.7095 151.999 31.0259C151.501 30.9071 151.566 30.9842 152.188 31.2504ZM163.23 31.7798C162.949 31.9863 162.9 31.8775 163.065 31.4148C163.199 31.0387 163.37 30.9124 163.465 31.1208C163.556 31.3216 163.45 31.6179 163.23 31.7798ZM159.381 31.9935C159.068 32.1418 158.983 32.2631 159.191 32.2631C159.4 32.2631 159.826 32.1418 160.138 31.9935C160.45 31.8452 160.535 31.7239 160.327 31.7239C160.119 31.7239 159.693 31.8452 159.381 31.9935ZM157.796 32.4617C158.069 32.5421 158.395 32.5321 158.521 32.4397C158.647 32.3474 158.423 32.2817 158.024 32.2937C157.583 32.307 157.494 32.373 157.796 32.4617ZM113.573 35.1339C113.573 35.1778 112.678 35.8349 111.585 36.5944L109.598 37.9749L111.476 36.5143C113.222 35.1572 113.573 34.9261 113.573 35.1339ZM153.324 36.385C151.857 36.8843 147.294 36.9784 145.819 36.5396C145.208 36.3582 146.021 36.311 148.469 36.3852C150.41 36.4442 152.424 36.3646 152.945 36.208C154.469 35.7498 154.773 35.8914 153.324 36.385ZM154.081 38.114C153.858 38.42 153.59 38.6704 153.486 38.6704C153.382 38.6704 153.479 38.42 153.702 38.114C153.925 37.808 154.192 37.5576 154.296 37.5576C154.401 37.5576 154.304 37.808 154.081 38.114ZM108.877 39.5264C108.911 40.1446 108.901 40.1485 108.758 39.5746C108.569 38.8209 108.38 38.8023 107.356 39.4355L106.569 39.9223L107.299 39.2897C108.185 38.5213 108.828 38.6178 108.877 39.5264ZM106.759 40.1415C106.759 40.1855 105.864 40.8426 104.771 41.6021L102.784 42.9826L104.662 41.522C106.408 40.1649 106.759 39.9337 106.759 40.1415ZM142.635 42.0567C143.583 42.333 146.987 42.3204 147.592 42.0386C147.902 41.8942 146.887 41.8122 145.043 41.8322C143.357 41.8506 142.274 41.9515 142.635 42.0567ZM129.749 43.0115C129.624 43.1039 129.297 43.1139 129.024 43.0335C128.722 42.9447 128.811 42.8788 129.253 42.8654C129.652 42.8535 129.875 42.9191 129.749 43.0115ZM143.295 47.2992C143.426 47.4547 143.691 47.5101 143.885 47.4219C144.41 47.1835 144.313 47.0165 143.648 47.0165C143.323 47.0165 143.164 47.1437 143.295 47.2992ZM136.453 51.9318C139.637 52.6318 140.776 53.0594 138.559 52.7222C136.786 52.4526 133.524 51.6141 132.644 51.2018C131.97 50.8864 131.973 50.8797 132.691 51.07C133.108 51.1804 134.801 51.5682 136.453 51.9318ZM93.934 51.8203C93.5599 52.0929 93.5168 52.0609 93.722 51.6645C93.8643 51.3902 94.0759 51.2358 94.1925 51.3215C94.3091 51.4069 94.1929 51.6314 93.934 51.8203ZM106.853 53.5994C106.593 53.6767 106.167 53.6767 105.907 53.5994C105.647 53.5223 105.859 53.4592 106.38 53.4592C106.901 53.4592 107.114 53.5223 106.853 53.5994ZM120.198 53.6829C120.719 53.8401 120.252 53.9146 118.705 53.9218C117.205 53.9285 116.638 53.8473 117.002 53.6779C117.664 53.3696 119.168 53.3721 120.198 53.6829ZM115.754 54.1628C115.392 54.2323 114.711 54.2348 114.24 54.1683C113.769 54.1018 114.065 54.0448 114.898 54.0417C115.731 54.0387 116.116 54.0932 115.754 54.1628ZM123.795 54.6672C124.315 54.8858 124.571 55.0647 124.362 55.0647C124.154 55.0647 123.558 54.8858 123.037 54.6672C122.517 54.4485 122.261 54.2696 122.47 54.2696C122.678 54.2696 123.274 54.4485 123.795 54.6672ZM150.295 55.4038C148.861 56.3269 146.324 57.2942 145.31 57.304C144.963 57.3073 144.593 57.4383 144.487 57.5953C144.37 57.7689 144.324 57.7605 144.371 57.5736C144.412 57.405 145.316 57.0505 146.378 56.7862C147.44 56.5219 148.969 55.9099 149.776 55.4264C151.653 54.2999 152.035 54.2835 150.295 55.4038ZM93.5084 55.0021C93.1961 55.0856 92.3867 55.3988 91.7102 55.6982C91.0337 55.9978 90.4798 56.1823 90.4798 56.1082C90.4798 55.8526 92.9425 54.8157 93.5084 54.833C94.0131 54.8483 94.0131 54.8672 93.5084 55.0021ZM141.485 54.9743C141.359 55.0667 141.033 55.0767 140.76 54.9963C140.458 54.9075 140.547 54.8416 140.988 54.8282C141.387 54.8163 141.611 54.8819 141.485 54.9743ZM146.036 55.287C145.255 55.3471 143.978 55.3471 143.197 55.287C142.416 55.2272 143.055 55.1779 144.616 55.1779C146.178 55.1779 146.817 55.2272 146.036 55.287ZM129.663 56.3194C131.12 56.6688 132.909 57.0845 133.638 57.243C134.64 57.4612 134.752 57.5385 134.099 57.5599C133.111 57.5925 129.706 56.7885 127.202 55.931C125.381 55.3076 125.557 55.3354 129.663 56.3194ZM119.733 58.0198C120.934 58.286 121.843 58.5587 121.752 58.6254C121.661 58.6925 120.167 58.532 118.432 58.2691C116.696 58.0062 113.914 57.6921 112.248 57.5713C109.366 57.3621 109.421 57.356 113.384 57.4436C115.9 57.4993 118.413 57.7274 119.733 58.0198ZM142.306 57.5624C140.905 57.6951 140.584 57.8259 140.667 58.2296C140.794 58.85 139.475 59.2575 137.342 59.2575H135.795L137.31 58.4513C139.11 57.4934 139.666 57.371 142.156 57.386L144.048 57.3974L142.306 57.5624ZM88.3238 57.9967C87.6587 58.2093 86.2958 58.9215 85.2952 59.5797C84.2946 60.2376 83.9021 60.4174 84.4226 59.9792C85.7101 58.8947 88.1879 57.5858 88.9277 57.5991C89.2608 57.6053 88.989 57.7839 88.3238 57.9967ZM94.6631 63.8504L94.2773 64.9607L94.4564 63.8479C94.5552 63.2358 94.6729 61.6084 94.7188 60.2312L94.8013 57.7274L94.9251 60.2337C94.9932 61.6125 94.8751 63.24 94.6631 63.8504ZM137.855 58.4321L136.961 58.9793L138.044 58.9598C138.64 58.949 139.468 58.8241 139.884 58.6822C140.442 58.4922 140.293 58.4685 139.316 58.5921C138.417 58.7058 138.113 58.6683 138.37 58.4758C138.578 58.3197 139.174 58.1358 139.695 58.0671L140.641 57.9422L139.695 57.9135C139.174 57.8979 138.346 58.1314 137.855 58.4321ZM142.913 59.1304C141.458 60.0112 138.125 60.9362 136.557 60.8939C135.55 60.8669 135.642 60.8238 137.094 60.6438C138.985 60.4087 141.695 59.5878 142.913 58.8803C144.148 58.1631 144.148 58.3828 142.913 59.1304ZM148.154 61.9124C148.031 62.1486 147.849 62.2822 147.749 62.2093C147.65 62.1364 147.681 61.943 147.819 61.78C148.192 61.336 148.41 61.4222 148.154 61.9124ZM149.351 62.0365C149.219 62.194 149.37 62.2407 149.707 62.1458C150.363 61.9608 150.483 61.7614 149.939 61.7614C149.743 61.7614 149.478 61.8852 149.351 62.0365ZM85.9854 63.6376C85.8525 65.5252 85.5583 65.4787 85.5583 63.5697C85.5583 62.6772 85.6753 62.0326 85.818 62.1378C85.9608 62.2427 86.0361 62.9176 85.9854 63.6376ZM145.253 62.2204C145.118 62.32 144.195 62.562 143.203 62.7582C142.21 62.9543 141.787 63.1232 142.262 63.1337C143.168 63.1532 145.752 62.4569 145.752 62.1929C145.752 61.9884 145.554 61.9992 145.253 62.2204ZM146.32 63.546C144.747 64.4405 141.885 65.0998 138.748 65.2907C137.291 65.3794 135.87 65.5405 135.591 65.6487C134.766 65.9686 139.319 65.6465 141.728 65.2147C144.421 64.7315 146.217 64.1286 147.101 63.4108C147.967 62.7078 147.719 62.7507 146.32 63.546ZM79.5011 66.7248C79.5011 67.4657 79.74 68.655 80.0319 69.3677C80.3237 70.0805 80.4169 70.6639 80.239 70.6639C79.7309 70.6639 79.1271 68.7254 79.1248 67.087C79.1229 65.8549 79.0207 65.6253 78.535 65.7625C78.198 65.8574 78.0462 65.8106 78.1787 65.6532C78.3059 65.5018 78.6554 65.378 78.9556 65.378C79.3554 65.378 79.5011 65.7377 79.5011 66.7248ZM132.165 65.7583C131.819 66.0646 132.062 66.2054 133.415 66.4839C134.339 66.6739 135.32 66.7632 135.596 66.6822C135.876 66.5999 135.733 66.5251 135.271 66.5128C134.816 66.5008 133.964 66.3439 133.378 66.1642L132.313 65.8379L133.638 65.6445L134.963 65.4512L133.778 65.4147C133.127 65.3944 132.401 65.5491 132.165 65.7583ZM105.154 65.8473C104.792 65.9169 104.111 65.9194 103.64 65.8529C103.169 65.7864 103.465 65.7294 104.298 65.7263C105.131 65.7233 105.516 65.7778 105.154 65.8473ZM122.091 67.3775C123.965 68.0502 126.231 68.8161 127.126 69.0792C128.93 69.6095 128.928 70.1075 127.121 70.1075C126.009 70.1075 121.436 68.453 120.949 67.8746C120.823 67.725 121.312 67.859 122.035 68.1726C122.758 68.4861 123.441 68.6336 123.553 68.5C123.665 68.3668 122.995 67.9854 122.062 67.6523C120.118 66.9582 119.856 66.9187 120.242 67.3778C120.395 67.5594 119.724 67.2879 118.75 66.774C117.777 66.2605 116.98 65.8017 116.98 65.755C116.98 65.6086 118.563 66.1108 122.091 67.3775ZM108.096 66.3375C108.818 66.5593 109.409 66.8033 109.409 66.8798C109.409 66.9563 108.855 66.8536 108.178 66.6519C107.501 66.4499 106.692 66.216 106.38 66.1317C106.012 66.0324 105.983 65.9706 106.298 65.9564C106.564 65.9444 107.374 66.1158 108.096 66.3375ZM86.1993 67.5288C86.1031 67.7995 86.0183 67.6454 86.0107 67.1863C86.0032 66.7273 86.0815 66.5059 86.1853 66.6942C86.289 66.8825 86.2954 67.2581 86.1993 67.5288ZM114.457 70.6561C114.342 70.7368 113.968 70.4931 113.626 70.1142C113.285 69.7353 112.519 68.9841 111.925 68.4449C111.332 67.9058 111.705 68.1495 112.756 68.9869C113.807 69.8243 114.572 70.5754 114.457 70.6561ZM123.644 68.6706C123.347 69.0231 125.929 69.831 127.309 69.8176C128.415 69.8068 128.32 69.7428 126.286 69.1221C123.713 68.337 123.898 68.3687 123.644 68.6706ZM140.452 70.2942C139.221 70.5902 137.593 70.6717 134.584 70.5882C131.503 70.5025 130.814 70.5387 131.934 70.7276C134.102 71.0929 140.006 70.8406 141.588 70.315C143.244 69.7647 142.695 69.7547 140.452 70.2942ZM129.52 71.0164C129.146 71.289 129.103 71.257 129.308 70.8606C129.45 70.5863 129.662 70.4319 129.779 70.5176C129.895 70.603 129.779 70.8275 129.52 71.0164ZM81.0154 71.5313C81.0154 71.6844 80.8451 71.7322 80.6368 71.6376C80.4286 71.543 80.2583 71.3405 80.2583 71.1875C80.2583 71.0345 80.4286 70.9866 80.6368 71.0812C80.8451 71.1758 81.0154 71.3783 81.0154 71.5313ZM115.67 71.7072L116.34 72.4722L115.525 71.9423C115.076 71.6507 114.709 71.3066 114.709 71.1772C114.709 70.7691 114.979 70.9182 115.67 71.7072ZM72.6867 72.3331C72.4637 72.6392 72.1965 72.8895 72.0924 72.8895C71.9882 72.8895 72.0852 72.6392 72.3081 72.3331C72.5311 72.0271 72.7984 71.7767 72.9025 71.7767C73.0066 71.7767 72.9097 72.0271 72.6867 72.3331ZM129.425 72.2636C128.973 72.6867 128.98 72.7098 129.473 72.44C129.786 72.2694 130.297 72.0602 130.609 71.9751C131.084 71.846 131.076 71.8171 130.56 71.7987C130.222 71.7867 129.711 71.9959 129.425 72.2636ZM127.391 73.1677C126.793 73.6268 125.919 74.0024 125.45 74.0024C124.402 74.0024 123.959 74.4389 124.774 74.6686C125.67 74.9213 125.951 74.8637 125.309 74.5588C124.839 74.3359 124.874 74.2884 125.508 74.2847C126.198 74.2811 128.716 72.8703 128.716 72.4878C128.716 72.2082 128.492 72.3228 127.391 73.1677ZM71.2038 74.3501C70.8101 75.0003 70.3059 75.8455 70.0829 76.228C69.6975 76.8904 69.6892 76.8837 69.911 76.0889C70.1552 75.2145 71.4389 73.1677 71.7429 73.1677C71.8402 73.1677 71.5976 73.6999 71.2038 74.3501ZM82.1511 74.5588C82.1511 74.8648 82.0856 75.1152 82.0061 75.1152C81.9263 75.1152 81.7718 74.8648 81.6628 74.5588C81.5541 74.2527 81.6192 74.0024 81.8081 74.0024C81.9967 74.0024 82.1511 74.2527 82.1511 74.5588ZM127.012 74.837L125.877 75.0492L126.895 75.0823C127.456 75.1004 128.019 74.99 128.148 74.837C128.277 74.684 128.33 74.5735 128.265 74.5916C128.201 74.6097 127.637 74.7201 127.012 74.837ZM130.23 75.806C130.23 76.1392 126.296 77.3611 125.561 77.256C124.821 77.15 124.833 77.1335 125.687 77.0879C126.208 77.0601 127.401 76.7357 128.337 76.3671C130.247 75.6157 130.23 75.6207 130.23 75.806ZM67.9522 77.8989C66.9403 78.7207 67.4821 78.8501 68.5239 78.0352C69.0119 77.6532 69.2379 77.3408 69.0255 77.3408C68.8135 77.3408 68.3304 77.592 67.9522 77.8989ZM92.735 79.2757C91.3725 79.3786 90.052 79.5559 89.801 79.6699C89.5497 79.784 89.3441 79.8035 89.3441 79.7131C89.3441 79.355 91.1537 79.0465 93.1299 79.0671L95.212 79.089L92.735 79.2757ZM117.359 79.2315C118.314 79.6749 120.61 79.8702 121.565 79.5895C122.306 79.3717 122.081 79.3202 120.324 79.3058C119.143 79.2963 117.866 79.2162 117.484 79.128C116.933 79.0009 116.907 79.022 117.359 79.2315ZM97.3888 79.4724C97.1288 79.5497 96.7029 79.5497 96.4424 79.4724C96.1823 79.3953 96.3951 79.3322 96.9156 79.3322C97.4362 79.3322 97.6493 79.3953 97.3888 79.4724ZM142.439 81.1491C142.804 81.2192 143.4 81.2192 143.764 81.1491C144.129 81.0793 143.831 81.022 143.102 81.022C142.373 81.022 142.075 81.0793 142.439 81.1491ZM65.54 81.9799C65.0936 82.5438 64.9861 82.3632 65.3514 81.6638C65.4809 81.4151 65.6672 81.2702 65.7645 81.3419C65.8621 81.4134 65.761 81.7005 65.54 81.9799ZM145.373 81.5481C145.894 81.7008 146.669 82.0372 147.095 82.2956C147.521 82.5544 147.391 82.4214 146.805 82.0007C146.22 81.5801 145.445 81.2437 145.083 81.2532C144.631 81.2654 144.722 81.3572 145.373 81.5481ZM72.6421 84.3452C73.6146 87.2733 73.6476 88.146 72.6962 85.7793C71.9659 83.9623 71.3367 81.5584 71.6525 81.7921C71.7558 81.8686 72.201 83.0176 72.6421 84.3452ZM150.979 83.3294C150.862 83.4151 150.651 83.2607 150.508 82.9864C150.303 82.59 150.346 82.558 150.72 82.8306C150.979 83.0195 151.096 83.244 150.979 83.3294ZM121.949 83.5356C121.575 83.8082 121.531 83.7762 121.737 83.3798C121.879 83.1055 122.091 82.9511 122.207 83.0368C122.324 83.1222 122.208 83.3467 121.949 83.5356ZM61.8257 84.6128C60.824 85.2463 59.9363 85.9037 59.8526 86.0734C59.7689 86.2433 60.6207 85.7651 61.7455 85.0103C62.8702 84.2558 63.8613 83.5985 63.948 83.5498C64.0347 83.5011 64.0026 83.4613 63.8761 83.4613C63.75 83.4613 62.8275 83.9796 61.8257 84.6128ZM121.145 84.7174C121.145 84.9208 118.76 85.9638 118.305 85.9596C118.097 85.9576 118.608 85.6569 119.441 85.2913C121.223 84.509 121.145 84.5355 121.145 84.7174ZM149.69 86.9247C149.556 87.835 149.208 89.0243 148.918 89.5676C148.451 90.4417 148.416 90.4604 148.614 89.7279C149.406 86.7981 149.568 85.8085 149.366 85.1634C149.189 84.6028 149.228 84.5313 149.536 84.8523C149.779 85.1069 149.84 85.9148 149.69 86.9247ZM128.636 85.725C128.541 85.9334 128.37 85.8071 128.236 85.431C128.071 84.9683 128.12 84.8596 128.401 85.066C128.621 85.2279 128.727 85.5242 128.636 85.725ZM128.006 86.874C127.632 87.1467 127.589 87.1147 127.794 86.7182C127.936 86.4439 128.148 86.2895 128.264 86.3752C128.381 86.4606 128.265 86.6851 128.006 86.874ZM117.304 89.3014C120.103 89.9513 122.829 90.0074 124.173 89.4427C125.347 88.9494 126.039 88.9041 125.239 89.3731C124.496 89.808 123.951 91.6555 124.652 91.3592C124.923 91.2449 124.987 91.2683 124.804 91.4152C124.63 91.5543 124.304 91.6683 124.078 91.6683C123.853 91.6683 123.589 91.8422 123.493 92.0548C123.373 92.3202 123.481 92.3705 123.84 92.2156C124.127 92.0915 124.022 92.2793 123.605 92.6326C122.552 93.5265 120.734 94.0339 118.601 94.0289C116.665 94.0242 115.453 93.6873 116.183 93.3559C116.413 93.2513 116.602 93.2983 116.602 93.4602C116.602 94.2161 122.472 93.539 123.176 92.7019C123.304 92.5508 122.777 92.6632 122.007 92.9517C121.217 93.2477 119.823 93.4767 118.809 93.4767H117.012L118.133 91.7379L119.254 89.9991L116.821 89.8394C114.319 89.6753 113.969 89.5376 110.544 87.374C109.281 86.5758 109.352 86.5883 112.059 87.6399C113.62 88.2464 115.981 88.9942 117.304 89.3014ZM119.63 86.9661C119.63 87.212 122.82 88.1783 123.654 88.1847C124.097 88.188 124.685 87.9715 124.96 87.7039C125.387 87.2897 125.382 87.2691 124.931 87.5648C124.192 88.0489 123.118 87.9905 121.239 87.3637C120.354 87.0685 119.63 86.8896 119.63 86.9661ZM112.998 88.6017C114.006 89.2148 116.089 89.7893 116.395 89.5387C116.459 89.4858 115.467 89.0991 114.19 88.679L111.869 87.9156L112.998 88.6017ZM135.672 89.0307C136.894 89.1745 138.134 89.4377 138.425 89.6157C138.717 89.7938 139.052 89.8689 139.169 89.7832C139.6 89.4663 137.675 88.9773 135.593 88.8746L133.448 88.7692L135.672 89.0307ZM127.724 90.9934C127.44 91.4622 127.374 91.3542 127.374 90.4164C127.374 89.4786 127.44 89.3706 127.724 89.8394C127.939 90.193 127.939 90.6398 127.724 90.9934ZM56.6071 90.4025C56.2894 90.854 56.0294 91.4725 56.0294 91.7771C56.0294 92.0817 55.8772 92.4 55.6913 92.4846C55.4982 92.5722 55.4728 92.2484 55.6322 91.7293C55.9252 90.7733 56.6839 89.5818 56.9989 89.5818C57.1011 89.5818 56.9247 89.9513 56.6071 90.4025ZM125.439 90.0111C125.316 90.2473 125.134 90.3808 125.035 90.3079C124.936 90.235 124.967 90.0417 125.104 89.8786C125.477 89.4346 125.695 89.5209 125.439 90.0111ZM121.334 90.1382L119.062 90.3229L121.145 90.3655C122.29 90.3889 123.482 90.2865 123.795 90.1382C124.107 89.9899 124.192 89.8875 123.984 89.9109C123.776 89.9343 122.583 90.0367 121.334 90.1382ZM118.494 90.5024C118.494 90.7027 118.244 91.1094 117.938 91.4065C117.435 91.8948 117.425 91.8597 117.832 91.0424C118.315 90.0706 118.494 89.9248 118.494 90.5024ZM147.656 91.7918C147.439 92.0895 147.075 92.4178 146.846 92.5216C146.618 92.6256 146.723 92.3822 147.081 91.9807C147.839 91.1308 148.231 91.002 147.656 91.7918ZM141.174 93.4767C141.145 94.96 140.963 94.6974 140.713 92.8131C140.603 91.976 140.661 91.6021 140.865 91.8394C141.048 92.0514 141.187 92.7881 141.174 93.4767ZM56.7861 96.4674C56.5329 97.0866 56.473 96.9406 56.473 95.7023C56.473 94.464 56.5329 94.3179 56.7861 94.9372C56.9588 95.3579 56.9588 96.0467 56.7861 96.4674ZM125.189 94.92C125.068 95.1417 124.978 95.0758 124.96 94.7517C124.944 94.4584 125.033 94.2943 125.159 94.3867C125.285 94.479 125.298 94.7191 125.189 94.92ZM96.813 94.7575C96.6873 94.8499 96.3606 94.8599 96.0877 94.7795C95.7856 94.6907 95.8753 94.6248 96.3163 94.6115C96.7154 94.5995 96.9387 94.6651 96.813 94.7575ZM123.235 95.1392C122.863 95.4416 122.41 95.6222 122.23 95.5401C122.049 95.4583 121.902 95.5198 121.902 95.6773C121.902 95.8344 121.618 95.8831 121.272 95.7855C120.824 95.6592 120.728 95.7104 120.94 95.963C121.171 96.2364 120.946 96.2754 119.961 96.1324C119.012 95.9944 118.83 96.022 119.252 96.2401C119.665 96.4534 119.304 96.4846 117.927 96.3547C114.753 96.0551 114.55 95.8264 117.448 95.8164C119.43 95.8094 120.674 95.6433 121.902 95.2216C124.055 94.4818 124.044 94.4826 123.235 95.1392ZM145.373 95.8414C144.454 96.5299 143.576 97.0933 143.424 97.0933C143.135 97.0933 146.567 94.6073 146.872 94.5959C146.967 94.5923 146.293 95.1528 145.373 95.8414ZM104.008 95.4388C105.946 95.6058 107.715 95.6096 108.687 95.4491C110.128 95.2113 110.388 95.2641 112.023 96.1274C113.955 97.1473 115.22 97.5632 117.548 97.9435L119.062 98.1908L117.407 98.0812C114.598 97.8954 114.304 98.3024 116.98 98.6727L119.441 99.0132L117.169 98.8666C114.207 98.6755 112.556 98.3945 106.29 97.0151C102.876 96.264 101.25 95.786 101.557 95.6247C101.86 95.4661 101.691 95.4263 101.08 95.5126C100.559 95.586 99.4521 95.473 98.6192 95.2619L97.1049 94.878L98.9978 95.0243C100.039 95.1047 102.293 95.2914 104.008 95.4388ZM107.516 95.8261C106.162 96.0036 104.998 96.0481 104.929 95.9254C104.859 95.8027 104.178 95.7115 103.415 95.7223C102.244 95.7396 102.56 95.8692 105.434 96.5511C107.308 96.9957 109.002 97.3228 109.199 97.2778C109.396 97.233 108.714 97.0221 107.685 96.8095L105.812 96.4231L108.034 96.0946L110.257 95.7663L112.356 96.8471C114.554 97.9788 114.46 98.0965 111.725 97.6333C110.812 97.4786 109.99 97.4082 109.897 97.4767C109.484 97.7796 113.86 98.212 114.736 97.9549C115.281 97.7949 115.411 97.6778 115.055 97.6672C114.725 97.6578 113.483 97.149 112.294 96.5369C111.105 95.9249 110.097 95.4422 110.055 95.4642C110.012 95.4859 108.869 95.6489 107.516 95.8261ZM52.3742 96.688C52.2508 96.9242 52.0687 97.0577 51.9695 96.9848C51.8703 96.9119 51.9014 96.7186 52.0388 96.5555C52.4121 96.1115 52.6301 96.1978 52.3742 96.688ZM136.855 97.1133C136.023 97.4077 135.767 97.5704 136.288 97.4753C137.359 97.2791 139.328 96.5542 138.748 96.5686C138.54 96.5739 137.688 96.819 136.855 97.1133ZM51.6545 98.6079C51.5122 99.1662 51.3104 99.5604 51.2063 99.4839C51.1022 99.4074 51.1336 98.888 51.2759 98.3297C51.4187 97.7716 51.6204 97.3774 51.7246 97.4539C51.8287 97.5304 51.7972 98.0498 51.6545 98.6079ZM98.799 100.663L104.658 101.683L102.774 102.028L100.891 102.373L102.594 102.241C103.531 102.168 104.724 102.046 105.244 101.969C105.765 101.892 105.424 102.02 104.487 102.254C103.55 102.488 101.932 102.7 100.891 102.724C99.2787 102.762 98.5859 102.59 96.2225 101.563C94.6957 100.9 92.481 100.124 91.301 99.8392L89.1548 99.3209L91.0477 99.4817C92.0888 99.5702 95.577 100.102 98.799 100.663ZM133.664 100.136C132.863 100.508 128.991 100.941 125.12 101.091C120.476 101.271 122.713 100.844 128.51 100.444C131 100.272 133.115 100.074 133.211 100.004C133.307 99.9329 133.57 99.8773 133.795 99.8795C134.021 99.882 133.962 99.9972 133.664 100.136ZM96.2175 101.218C97.6035 101.827 99.1367 102.405 99.6247 102.502C100.113 102.599 99.6005 102.334 98.4863 101.912C95.9783 100.964 96.506 100.786 99.9783 101.412C101.437 101.674 102.707 101.833 102.801 101.764C102.942 101.66 98.6681 100.869 94.6442 100.255C94.1225 100.176 94.8282 100.608 96.2175 101.218ZM49.3304 102.236C48.984 102.77 48.6335 103.157 48.5513 103.097C48.3783 102.97 49.5273 101.266 49.7866 101.266C49.8816 101.266 49.6765 101.703 49.3304 102.236ZM51.3664 102.71C51.2457 102.931 51.1559 102.865 51.1378 102.541C51.1215 102.248 51.2108 102.084 51.3365 102.176C51.4622 102.269 51.4758 102.509 51.3664 102.71ZM113.762 103.003L115.655 103.302L113.952 103.864C112.113 104.47 108.047 104.828 107.506 104.431C107.315 104.292 108.015 104.226 109.143 104.277C110.226 104.326 111.538 104.244 112.059 104.096C112.76 103.897 112.393 103.866 110.639 103.976C108.185 104.131 108.118 104.112 108.509 103.364C108.701 102.997 109.074 102.947 110.496 103.098C111.46 103.2 112.439 103.395 112.673 103.532C112.907 103.668 113.418 103.687 113.809 103.573C114.306 103.429 113.55 103.222 111.302 102.886C109.471 102.612 108.9 102.469 109.977 102.554C111.018 102.636 112.721 102.838 113.762 103.003ZM107.941 103.566C107.567 103.839 107.524 103.807 107.729 103.41C107.872 103.136 108.083 102.982 108.2 103.067C108.316 103.153 108.2 103.377 107.941 103.566ZM48.1254 104.236C47.6791 104.8 47.5716 104.62 47.9369 103.92C48.0664 103.671 48.2526 103.527 48.3499 103.598C48.4476 103.67 48.3465 103.957 48.1254 104.236ZM118.695 104.314C118.572 104.46 117.923 104.847 117.253 105.175C116.039 105.768 116.039 105.767 117.359 104.917C118.757 104.016 119.06 103.88 118.695 104.314ZM46.507 106.723C45.7589 107.966 45.7359 109.16 46.4218 111.143C46.5767 111.59 46.5384 111.618 46.2269 111.284C46.0137 111.056 45.7302 110.226 45.5965 109.44C45.4065 108.324 45.5231 107.729 46.1273 106.725C46.5528 106.018 46.9863 105.439 47.0904 105.439C47.1945 105.439 46.9318 106.017 46.507 106.723ZM79.8797 105.974C80.7905 106.275 80.7833 106.28 79.6904 106.106C79.0657 106.007 77.1066 105.825 75.3368 105.702L72.1189 105.479L75.5261 105.57C77.4 105.62 79.3591 105.801 79.8797 105.974ZM51.4221 107.804C51.413 108.252 51.3517 108.224 51.1079 107.665C50.6933 106.714 50.6933 105.982 51.1079 106.691C51.2869 106.997 51.4281 107.498 51.4221 107.804ZM112.816 106.725L110.734 107.099L112.565 106.996C113.572 106.94 114.586 106.754 114.817 106.584C115.049 106.413 115.162 106.291 115.068 106.312C114.974 106.334 113.961 106.519 112.816 106.725ZM116.602 106.936C116.602 106.993 116.303 107.212 115.939 107.422C115.339 107.768 115.325 107.759 115.796 107.317C116.291 106.854 116.602 106.707 116.602 106.936ZM106.001 109.127C107.976 109.799 111.072 110.058 112.437 109.664C113.157 109.456 112.84 109.424 111.112 109.531C109.373 109.638 108.353 109.533 106.759 109.085C104.139 108.349 103.775 108.369 106.001 109.127ZM52.1705 109.759C52.0539 109.845 51.8423 109.69 51.6999 109.416C51.4948 109.019 51.5379 108.987 51.912 109.26C52.1709 109.449 52.2871 109.673 52.1705 109.759ZM43.796 110.975C43.341 111.725 42.9158 112.235 42.8519 112.109C42.73 111.87 44.1905 109.613 44.4665 109.613C44.5528 109.613 44.2515 110.226 43.796 110.975ZM53.3793 111.66C53.3793 112.013 53.2044 111.855 52.6525 111.004C52.2277 110.348 52.2353 110.339 52.7906 110.848C53.1143 111.145 53.3793 111.51 53.3793 111.66ZM102.178 110.795C102.088 110.833 101.251 111.365 100.317 111.977L98.6192 113.09L100.116 111.908C100.939 111.258 101.777 110.725 101.977 110.725C102.178 110.725 102.268 110.757 102.178 110.795ZM73.7278 111.481C73.1554 111.545 72.218 111.545 71.6456 111.481C71.0732 111.417 71.5415 111.365 72.6867 111.365C73.8319 111.365 74.3002 111.417 73.7278 111.481ZM70.1313 111.744C69.8713 111.821 69.4454 111.821 69.1849 111.744C68.9248 111.667 69.1376 111.604 69.6581 111.604C70.1787 111.604 70.3918 111.667 70.1313 111.744ZM76.9529 111.742C76.6966 111.819 76.1855 111.823 75.8172 111.753C75.4488 111.682 75.6586 111.62 76.2832 111.614C76.9079 111.609 77.2092 111.666 76.9529 111.742ZM46.9435 112.395C47.1665 112.701 47.2634 112.951 47.1593 112.951C47.0552 112.951 46.7879 112.701 46.5649 112.395C46.342 112.089 46.245 111.838 46.3491 111.838C46.4533 111.838 46.7205 112.089 46.9435 112.395ZM78.8386 112.022C78.5785 112.1 78.1526 112.1 77.8922 112.022C77.6321 111.945 77.8448 111.882 78.3654 111.882C78.8859 111.882 79.0991 111.945 78.8386 112.022ZM53.9025 112.548C54.0316 112.796 53.968 112.907 53.7537 112.81C53.5478 112.716 53.3793 112.522 53.3793 112.378C53.3793 111.978 53.6508 112.066 53.9025 112.548ZM83.3815 112.579C83.1214 112.656 82.6955 112.656 82.4351 112.579C82.175 112.502 82.3878 112.439 82.9083 112.439C83.4288 112.439 83.642 112.502 83.3815 112.579ZM86.5915 112.841C86.4658 112.933 86.1391 112.943 85.8661 112.863C85.564 112.774 85.6537 112.708 86.0948 112.695C86.4938 112.683 86.7172 112.748 86.5915 112.841ZM42.3858 114.102C41.9395 115.245 41.503 115.557 41.8543 114.481C42.1435 113.594 42.3571 113.229 42.5857 113.229C42.6629 113.229 42.5732 113.622 42.3858 114.102ZM40.9064 117.277C40.7227 117.729 40.5581 117.889 40.5403 117.634C40.5039 117.115 40.9079 116.213 41.1096 116.361C41.1812 116.413 41.0896 116.826 40.9064 117.277ZM95.4013 116.427C95.4013 116.503 94.629 116.832 93.6852 117.157C92.4594 117.581 91.5743 117.703 90.5858 117.585C89.7439 117.485 88.9712 117.553 88.6108 117.759C88.0921 118.056 88.0823 118.038 88.5286 117.62C88.9193 117.253 89.4043 117.177 90.6108 117.292C91.753 117.401 92.5976 117.287 93.6977 116.877C95.4112 116.237 95.4013 116.24 95.4013 116.427ZM79.0911 117.302C79.1778 117.357 76.1113 117.38 72.2767 117.353C67.4196 117.319 66.1086 117.251 67.9545 117.129C70.483 116.963 78.7595 117.091 79.0911 117.302ZM40.5077 118.793C40.2847 119.099 40.0175 119.35 39.9133 119.35C39.8092 119.35 39.9062 119.099 40.1291 118.793C40.3521 118.487 40.6194 118.237 40.7235 118.237C40.8276 118.237 40.7307 118.487 40.5077 118.793ZM87.8767 119.146C87.5027 119.418 87.4595 119.386 87.6647 118.99C87.8071 118.716 88.0187 118.561 88.1353 118.647C88.2519 118.732 88.1357 118.957 87.8767 119.146ZM86.8724 121.516C86.5551 122.301 86.1625 123.003 85.9998 123.077C85.837 123.151 86.0369 122.465 86.4438 121.553C87.3399 119.545 87.6806 119.515 86.8724 121.516ZM84.4226 120.856C83.9021 121.061 83.0503 121.306 82.5297 121.401C82.0092 121.496 82.2647 121.333 83.0976 121.039C84.8106 120.434 85.8725 120.287 84.4226 120.856ZM42.51 122.41C42.2382 123.175 42.0144 123.109 42.1064 122.291C42.1485 121.919 42.301 121.669 42.4453 121.735C42.5899 121.8 42.619 122.104 42.51 122.41ZM43.5848 122.881C43.8873 123.155 43.9164 123.268 43.6541 123.153C43.4004 123.041 43.034 123.169 42.814 123.447C42.5993 123.718 42.4184 123.791 42.412 123.609C42.4059 123.426 42.5736 123.199 42.7852 123.103C42.9969 123.006 43.0722 122.811 42.9522 122.669C42.5842 122.231 43.0343 122.382 43.5848 122.881ZM44.5661 123.985C44.6346 124.135 44.306 124.5 43.8362 124.795C43.2494 125.163 43.1335 125.186 43.4667 124.869C43.7938 124.557 43.8225 124.348 43.5549 124.227C43.3364 124.128 43.1577 123.939 43.1577 123.809C43.1577 123.486 44.4108 123.642 44.5661 123.985ZM84.8012 124.861C84.8012 124.984 84.543 125.329 84.2273 125.626C83.695 126.126 83.6855 126.11 84.0985 125.401C84.5445 124.635 84.8012 124.438 84.8012 124.861ZM45.6185 125.47C45.7472 125.623 45.6719 125.748 45.4515 125.748C45.2312 125.748 45.0506 125.623 45.0506 125.47C45.0506 125.317 45.1256 125.192 45.2176 125.192C45.3096 125.192 45.4898 125.317 45.6185 125.47ZM37.8569 128.948C37.8656 130.982 38.0704 131.869 38.948 133.677C39.542 134.901 40.1465 136.153 40.2919 136.459C40.4369 136.765 40.2957 136.688 39.9781 136.287C38.5588 134.499 37.5408 131.455 37.4151 128.626C37.3462 127.071 37.4151 125.944 37.5681 126.122C37.721 126.299 37.8509 127.571 37.8569 128.948ZM44.9227 126.931C44.8178 127.122 44.7319 126.966 44.7319 126.583C44.7319 126.2 44.8178 126.044 44.9227 126.235C45.0279 126.427 45.0279 126.74 44.9227 126.931ZM45.9751 128.025C45.7646 128.512 45.6598 128.545 45.4023 128.207C45.2289 127.979 45.1888 127.506 45.3134 127.156C45.5091 126.607 45.5875 126.582 45.8861 126.974C46.0766 127.224 46.1167 127.697 45.9751 128.025ZM47.2032 128.807C47.3319 129.606 47.2763 130.2 47.0722 130.2C46.8769 130.2 46.7894 129.744 46.8776 129.188C46.9662 128.631 46.8894 128.244 46.7069 128.326C46.5248 128.408 46.3624 128.041 46.3461 127.51C46.3037 126.119 46.9204 127.053 47.2032 128.807ZM82.3086 127.722C81.9145 128.042 81.249 128.431 80.8303 128.587C80.4116 128.742 80.6652 128.485 81.394 128.016C82.9401 127.019 83.3262 126.895 82.3086 127.722ZM53.4263 128.883C53.0522 129.156 53.0091 129.124 53.2143 128.727C53.3566 128.453 53.5682 128.298 53.6848 128.384C53.8014 128.469 53.6852 128.694 53.4263 128.883ZM53.1313 129.794C53.0079 130.03 52.8258 130.164 52.7267 130.091C52.6275 130.018 52.6585 129.825 52.7959 129.662C53.1692 129.218 53.3873 129.304 53.1313 129.794ZM63.2223 129.643L59.2473 129.813L62.2759 129.911C63.9416 129.965 65.6452 129.992 66.0616 129.97C66.7124 129.937 66.6859 129.988 65.8723 130.334C64.6904 130.836 56.5847 130.943 56.9989 130.45C57.6133 129.72 59.7019 129.388 63.4116 129.43L67.1974 129.474L63.2223 129.643ZM71.4999 129.773C71.0694 130.09 68.4788 130.755 68.6996 130.492C68.8351 130.331 69.2337 130.198 69.5858 130.195C70.1374 130.192 70.1476 130.154 69.6581 129.921C69.2303 129.718 69.4094 129.651 70.3838 129.647C71.0952 129.645 71.5976 129.702 71.4999 129.773ZM57.842 130.242C57.5732 130.367 59.1371 130.461 61.3294 130.452C63.5157 130.442 65.1341 130.39 64.9259 130.338C64.0381 130.112 58.2872 130.034 57.842 130.242ZM52.2898 131.222C51.8434 131.786 51.7359 131.605 52.1012 130.906C52.2307 130.657 52.417 130.512 52.5143 130.584C52.6119 130.656 52.5109 130.943 52.2898 131.222ZM78.5232 133.515C78.1761 134.152 77.8301 134.628 77.7544 134.573C77.6783 134.517 77.8967 133.947 78.2393 133.306C78.5819 132.665 78.9276 132.189 79.0082 132.248C79.0885 132.308 78.8704 132.877 78.5232 133.515ZM50.0191 135.282C49.645 135.554 49.6019 135.522 49.8071 135.126C49.9494 134.851 50.161 134.697 50.2776 134.783C50.3942 134.868 50.278 135.093 50.0191 135.282ZM76.828 135.923C75.8528 136.787 73.2641 137.516 70.6897 137.652C69.2792 137.726 68.0336 137.895 67.9227 138.027C67.8114 138.159 67.5279 138.268 67.292 138.268C67.0562 138.268 67.194 138.084 67.5983 137.859C68.0022 137.634 69.0997 137.446 70.0367 137.44C72.3036 137.426 74.2018 137.016 75.76 136.202C77.3027 135.396 77.4738 135.351 76.828 135.923ZM38.6463 137.224C38.7333 137.262 39.3152 137.607 39.9398 137.989L41.0756 138.685L40.1579 137.92C39.6529 137.499 39.071 137.155 38.8643 137.155C38.6576 137.155 38.5596 137.186 38.6463 137.224ZM54.4204 137.346C54.0558 137.417 53.46 137.417 53.0954 137.346C52.7308 137.277 53.0291 137.219 53.7579 137.219C54.4867 137.219 54.785 137.277 54.4204 137.346ZM58.9679 137.346C58.6059 137.415 57.9245 137.418 57.4536 137.351C56.9826 137.285 57.2787 137.228 58.1115 137.225C58.9444 137.222 59.3298 137.276 58.9679 137.346ZM63.3241 137.615C63.0678 137.692 62.5568 137.696 62.1884 137.626C61.8201 137.555 62.0298 137.493 62.6544 137.487C63.2791 137.482 63.5804 137.539 63.3241 137.615ZM42.7792 139.271C42.7792 139.501 42.044 139.632 41.8755 139.431C41.7661 139.301 41.9247 139.195 42.228 139.195C42.5312 139.195 42.7792 139.229 42.7792 139.271ZM43.5848 140.145C44.0554 140.587 44.0421 140.596 43.4417 140.251C43.0771 140.041 42.7792 139.821 42.7792 139.764C42.7792 139.535 43.09 139.682 43.5848 140.145ZM55.3668 139.855C54.8982 139.921 54.1319 139.921 53.6632 139.855C53.1946 139.788 53.5781 139.734 54.515 139.734C55.452 139.734 55.8355 139.788 55.3668 139.855ZM41.4742 141.582C41.3523 141.727 41.414 141.919 41.6113 142.009C41.8085 142.098 42.0693 142.053 42.1912 141.908C42.3131 141.763 42.2514 141.571 42.0542 141.482C41.857 141.392 41.5961 141.437 41.4742 141.582ZM46.7667 142.51C46.6827 142.702 46.1686 143.985 45.6242 145.362C45.0794 146.739 44.5297 148.053 44.4018 148.283C44.2742 148.512 44.1549 148.784 44.1367 148.886C44.119 148.988 43.9865 149.158 43.8426 149.263C43.4996 149.515 43.7953 147.814 44.1712 147.372C44.331 147.185 44.4892 146.906 44.5229 146.753C44.8193 145.412 46.3938 142.162 46.7474 142.162C46.8421 142.162 46.8508 142.319 46.7667 142.51ZM64.4591 143.256C63.2057 144.024 57.8109 144.414 54.922 143.946C54.0861 143.81 54.0509 143.842 54.5291 144.301C54.8179 144.578 54.5495 144.477 53.9328 144.075C53.3161 143.673 52.5559 143.276 52.2436 143.193C51.8457 143.086 51.9082 143.034 52.4518 143.019C52.8785 143.007 53.3895 143.116 53.5875 143.261C54.7085 144.083 63.2598 143.915 64.4398 143.048C64.6863 142.867 64.9819 142.723 65.0963 142.728C65.2106 142.733 64.924 142.971 64.4591 143.256ZM41.8327 143.966L42.5899 144.419L41.8327 144.145C41.4163 143.995 40.7349 143.669 40.3184 143.419L39.5613 142.966L40.3184 143.24C40.7349 143.39 41.4163 143.716 41.8327 143.966ZM48.8565 145.045C48.3261 146.07 48.0289 145.968 48.5214 144.93C48.7429 144.463 48.9943 144.133 49.0802 144.196C49.1658 144.259 49.0654 144.641 48.8565 145.045ZM42.51 145.501C42.2378 146.267 42.022 146.198 42.022 145.345C42.022 144.954 42.1765 144.704 42.365 144.789C42.5535 144.875 42.619 145.195 42.51 145.501ZM56.7134 146.268C57.7447 146.34 58.972 146.254 59.4759 146.073C60.3364 145.765 60.3451 145.771 59.6482 146.181C59.2117 146.438 58.1717 146.614 57.0871 146.614C55.5342 146.614 55.0753 146.478 54.0187 145.71C53.3354 145.212 53.2449 145.105 53.8173 145.471C54.5056 145.911 55.4865 146.181 56.7134 146.268ZM56.7191 145.05C57.4433 145.202 58.4011 145.202 59.1254 145.05C60.163 144.831 59.9976 144.796 57.9222 144.796C55.8469 144.796 55.6814 144.831 56.7191 145.05ZM48.1849 146.625C48.0739 146.937 47.8987 147.13 47.7949 147.054C47.5901 146.904 47.952 146.057 48.2212 146.057C48.3124 146.057 48.2962 146.313 48.1849 146.625ZM41.707 147.235C41.4261 147.441 41.3769 147.332 41.5416 146.87C41.6756 146.493 41.8471 146.367 41.9418 146.576C42.0326 146.776 41.9274 147.073 41.707 147.235ZM47.5258 148.213C47.3842 148.634 47.118 149.092 46.9344 149.23C46.7504 149.368 46.7913 149.024 47.0245 148.465C47.5189 147.281 47.9036 147.088 47.5258 148.213ZM49.4622 150.86C50.1497 151.444 50.1432 151.444 49.0692 150.842C48.4684 150.506 47.7548 150.23 47.4826 150.23C47.2108 150.23 46.8871 150.11 46.7637 149.963C46.3363 149.455 48.7546 150.259 49.4622 150.86ZM43.8558 150.372C44.2738 150.68 43.5166 150.828 42.4279 150.652C40.8564 150.398 40.895 149.828 42.4676 150.059C43.129 150.157 43.7536 150.297 43.8558 150.372ZM26.2274 151.632C26.1165 151.944 25.9412 152.138 25.8375 152.062C25.6327 151.911 25.9946 151.065 26.2638 151.065C26.355 151.065 26.3387 151.32 26.2274 151.632ZM28.2373 152.107C27.8239 152.411 27.5403 151.927 27.8371 151.425C28.1188 150.948 28.1392 150.948 28.296 151.434C28.3864 151.714 28.3599 152.017 28.2373 152.107ZM48.8364 151.916C48.8364 152.06 48.666 152.178 48.4578 152.178C48.2496 152.178 48.0792 151.982 48.0792 151.744C48.0792 151.506 48.2496 151.388 48.4578 151.482C48.666 151.577 48.8364 151.772 48.8364 151.916ZM28.0147 153.471C28.0147 153.673 26.5556 153.025 26.2857 152.704C26.1441 152.536 26.4754 152.613 27.0217 152.876C27.568 153.14 28.0147 153.407 28.0147 153.471ZM43.2066 152.734C44.5869 152.881 46.1924 153.134 46.7739 153.296C47.734 153.564 47.7771 153.632 47.2388 154.027C46.7008 154.423 46.5752 154.411 45.8793 153.9C44.8844 153.168 41.9796 152.879 36.0992 152.925C31.3931 152.962 29.671 153.271 30.0556 154.008C30.1767 154.239 30.0317 154.403 29.7065 154.403C29.0857 154.403 28.9414 153.418 29.5233 153.154C30.9415 152.51 38.8238 152.268 43.2066 152.734ZM48.2909 154.83C47.8865 155.054 47.3755 155.234 47.1551 155.228C46.9344 155.223 47.1801 155.039 47.7007 154.821C48.9269 154.305 49.2256 154.31 48.2909 154.83ZM29.4794 155.479C29.2576 155.535 28.7983 155.377 28.4591 155.128C27.889 154.709 27.9197 154.701 28.8627 155.026C29.4237 155.219 29.7012 155.423 29.4794 155.479ZM43.4205 158.924C43.4046 165.73 44.5854 168.953 49.3115 175.003C52.696 179.336 53.6182 180.75 53.2411 181.027C52.9277 181.257 53.0352 181.378 50.8429 178.329C49.7976 176.875 48.1633 174.622 47.2104 173.321C44.9147 170.187 43.7218 167.464 42.9461 163.584C42.203 159.869 42.4188 154.682 43.3164 154.682C43.3792 154.682 43.4258 156.591 43.4205 158.924ZM45.4667 159.553C45.6484 163.121 45.86 164.355 46.5347 165.79C48.0088 168.925 49.6193 170.827 53.4077 173.911C56.5113 176.437 57.7068 177.734 58.6661 179.619C59.7564 181.761 59.7019 182.054 58.2535 181.841C57.6027 181.746 56.6782 181.667 56.199 181.667C55.5058 181.667 55.1249 181.341 54.3352 180.068C53.7893 179.188 52.0774 176.841 50.5313 174.851C46.917 170.202 46.0334 168.561 44.8689 164.333C43.659 159.942 43.5 154.861 44.5774 155.012C45.1638 155.094 45.266 155.616 45.4667 159.553ZM48.4355 163.543C48.6835 164.208 48.8118 164.808 48.7206 164.875C48.2621 165.212 47.5958 161.935 47.4962 158.855L47.3838 155.377L47.684 158.855C47.8494 160.767 48.1871 162.877 48.4355 163.543ZM29.8239 158.949C29.7187 160.7 29.4298 162.341 29.1746 162.635C28.731 163.148 28.7238 163.147 28.9729 162.61C29.1148 162.304 29.3219 160.646 29.4328 158.924C29.5438 157.203 29.7198 155.794 29.8239 155.794C29.928 155.794 29.928 157.214 29.8239 158.949ZM33.1823 162.986C32.7147 166.685 29.2454 172.927 28.118 172.099C27.9942 172.008 28.5125 170.963 29.2697 169.776C30.9653 167.118 31.7096 165.337 32.031 163.167C32.3055 161.315 32.416 161.08 33.013 161.08C33.2913 161.08 33.3458 161.693 33.1823 162.986ZM22.1467 171.318C20.481 172.502 18.5219 173.761 17.7931 174.116C16.5968 174.698 16.6154 174.671 17.9824 173.84C18.8153 173.334 20.6892 172.074 22.1467 171.039C23.6043 170.004 24.882 169.159 24.9861 169.161C25.0902 169.163 23.8125 170.134 22.1467 171.318ZM54.7043 171.374C55.5175 171.986 56.0979 172.487 55.9938 172.487C55.8897 172.487 55.1389 171.986 54.3258 171.374C53.5126 170.762 52.9322 170.261 53.0363 170.261C53.1404 170.261 53.8912 170.762 54.7043 171.374ZM66.0295 178.082C68.5459 179.553 71.1156 181.175 71.7403 181.688C72.3649 182.2 71.8463 181.936 70.5875 181.1C69.3288 180.264 66.1858 178.392 63.6035 176.938C61.0213 175.484 58.3031 173.881 57.5637 173.375C56.0506 172.34 59.2272 174.106 66.0295 178.082ZM26.2411 173.78C26.3762 173.879 25.9132 174.427 25.2121 174.997C24.511 175.568 23.4631 176.644 22.8835 177.39C21.3196 179.402 20.8497 179.72 19.438 179.72C18.7414 179.72 18.1717 179.614 18.1717 179.485C18.1717 179.083 21.0674 175.935 22.5378 174.739C23.5232 173.937 24.2433 173.599 24.9671 173.599C25.5327 173.599 26.1063 173.681 26.2411 173.78ZM30.2078 174.562C30.2994 174.629 29.6804 175.473 28.8324 176.437C26.1748 179.459 25.8212 179.72 24.3894 179.72C23.6766 179.72 23.0932 179.58 23.0932 179.409C23.0932 178.998 25.5513 176.035 26.7877 174.956C27.6013 174.245 27.9499 174.133 28.9017 174.272C29.5286 174.365 30.1165 174.495 30.2078 174.562ZM42.8738 175.101C43.2384 175.193 43.8343 175.34 44.1988 175.426C45.5322 175.744 43.7733 176.084 42.1912 175.815C41.3694 175.675 39.4519 175.557 37.93 175.554C35.071 175.547 34.572 175.199 36.8086 174.774C37.944 174.557 41.4841 174.748 42.8738 175.101ZM16.2788 174.828C16.2788 174.892 14.8735 175.665 13.1555 176.545C11.4376 177.426 8.7546 179.029 7.19297 180.108L4.35364 182.07L6.81439 180.19C8.1678 179.155 10.8084 177.503 12.6823 176.517C16.1842 174.676 16.2788 174.631 16.2788 174.828ZM8.71371 181.437C3.14674 186.333 2.26011 192.06 6.47064 195.925C7.25581 196.646 7.43601 196.969 7.05327 196.969C6.43846 196.969 4.65423 195.408 3.55371 193.908C2.98925 193.139 2.83971 192.351 2.84047 190.153C2.84123 187.615 2.94496 187.21 4.02466 185.534C4.76213 184.389 6.16967 182.948 7.76045 181.709C9.16459 180.615 10.3927 179.72 10.4896 179.72C10.5865 179.72 9.78735 180.493 8.71371 181.437ZM68.2366 183.302C71.6706 185.978 72.8756 187.879 72.8457 190.576C72.8033 194.347 70.3437 197.032 66.6166 197.378C65.3984 197.491 65.1375 197.461 65.6831 197.271C66.0995 197.126 66.7703 196.999 67.1739 196.988C68.5201 196.952 70.3797 195.753 71.1652 194.413C72.1325 192.764 72.1965 189.693 71.2989 188.002C70.5084 186.513 68.5958 184.349 66.5916 182.675C64.1869 180.668 65.4945 181.166 68.2366 183.302ZM19.4986 182.293C19.3468 182.638 19.1386 184.252 19.0352 185.881L18.8478 188.843L17.7053 189.011C17.0768 189.103 16.3435 189.179 16.0755 189.179C15.2654 189.179 15.0802 187.221 15.6754 184.947C16.4352 182.044 16.7498 181.667 18.4185 181.667C19.6538 181.667 19.75 181.723 19.4986 182.293ZM24.3171 182.471C24.4697 182.575 24.428 183.406 24.2247 184.32C24.0211 185.233 23.8537 186.637 23.8526 187.44L23.8503 188.901H22.0911H20.3318L20.5514 186.327C20.6722 184.912 20.9728 183.34 21.2192 182.835C21.6296 181.992 21.7663 181.931 22.8535 182.099C23.5058 182.2 24.1646 182.367 24.3171 182.471ZM54.8936 184.055C54.8936 184.298 54.6915 184.446 54.4443 184.386C53.742 184.214 53.6258 183.615 54.2943 183.615C54.6237 183.615 54.8936 183.813 54.8936 184.055ZM59.9465 184.435C60.5742 184.896 60.0275 185.03 58.4803 184.793C56.473 184.487 56.1463 183.744 58.1225 183.98C58.9134 184.074 59.7341 184.279 59.9465 184.435ZM76.0939 186.496C76.0939 186.85 75.919 186.692 75.367 185.84C74.9423 185.185 74.9499 185.176 75.5052 185.685C75.8289 185.982 76.0939 186.347 76.0939 186.496ZM0.887773 186.548C0.764357 186.784 0.582261 186.918 0.483074 186.845C0.383887 186.772 0.414931 186.579 0.552354 186.416C0.92563 185.972 1.14369 186.058 0.887773 186.548ZM56.0869 187.023C56.6468 187.78 56.7434 193.008 56.2099 193.677C55.9476 194.007 55.8227 193.401 55.7806 191.591C55.7481 190.188 55.4668 188.445 55.1552 187.718C54.6839 186.618 54.6759 186.397 55.1068 186.397C55.3915 186.397 55.8325 186.679 56.0869 187.023ZM59.3907 187.1C60.2403 187.281 60.28 187.385 60.0885 188.937C59.8428 190.929 58.8456 193.06 57.6693 194.108L56.7998 194.882L57.2124 193.97C57.4513 193.442 57.5668 191.718 57.4869 189.87C57.3688 187.132 57.4301 186.697 57.9196 186.795C58.2334 186.858 58.8956 186.995 59.3907 187.1ZM77.0824 189.716C77.1956 190.568 77.1305 191.766 76.9381 192.378C76.6326 193.351 76.5933 193.21 76.6251 191.265C76.6455 190.041 76.5369 188.539 76.3839 187.927C76.1636 187.045 76.1859 186.954 76.4914 187.49C76.7034 187.862 76.9692 188.863 77.0824 189.716ZM65.1231 192.249C64.7506 192.877 64.7332 192.856 64.9157 191.996C65.0255 191.479 65.1425 190.791 65.1758 190.466C65.2117 190.116 65.2962 190.22 65.3828 190.719C65.4635 191.183 65.3465 191.872 65.1231 192.249ZM76.092 194.663C75.6798 195.136 75.6688 195.135 75.8759 194.651C75.9959 194.371 76.1075 193.995 76.1238 193.816C76.1454 193.582 76.2056 193.585 76.34 193.828C76.4422 194.014 76.3309 194.389 76.092 194.663ZM1.124 195.16C1.124 195.313 0.958945 195.251 0.757164 195.021C0.555382 194.792 0.390323 194.479 0.390323 194.326C0.390323 194.173 0.555382 194.235 0.757164 194.465C0.958945 194.694 1.124 195.007 1.124 195.16Z" fill="url(#paint1_linear_11_27)"/>
</g>
<path fill-rule="evenodd" clip-rule="evenodd" d="M137.433 64.1345C156.298 64.1345 171.02 67.3087 181.599 73.6572C192.353 80.0057 197.729 88.6221 197.729 99.5051C197.729 107.538 194.82 114.211 189.002 119.523C183.361 124.835 175.78 128.528 166.26 130.601C177.014 132.285 185.654 136.237 192.177 142.456C198.7 148.546 201.961 155.542 201.961 163.446C201.961 174.847 196.496 183.916 185.565 190.654C174.81 197.261 159.735 200.565 140.341 200.565H81.5427V166.555H53.8632V64.1345H137.433ZM99.0853 173.746H132.408C139.989 173.746 145.807 172.515 149.862 170.053C154.094 167.462 156.209 163.77 156.209 158.976C156.209 154.182 154.005 150.425 149.598 147.704C145.366 144.983 139.46 143.622 131.878 143.622H99.0853V173.746ZM99.0853 119.329H128.706C136.111 119.329 141.752 118.162 145.631 115.83C149.686 113.369 151.713 109.806 151.713 105.142C151.713 100.478 149.686 96.9152 145.631 94.4535C141.752 91.9919 136.111 90.7606 128.706 90.7605H99.0853V119.329Z" fill="url(#paint2_linear_11_27)"/>
<path d="M251.236 140.091V191H245.369V140.091H251.236ZM284.492 191.795C281.045 191.795 278.021 190.975 275.419 189.335C272.834 187.694 270.812 185.399 269.354 182.449C267.912 179.499 267.191 176.052 267.191 172.108C267.191 168.131 267.912 164.659 269.354 161.692C270.812 158.726 272.834 156.423 275.419 154.782C278.021 153.141 281.045 152.321 284.492 152.321C287.939 152.321 290.955 153.141 293.54 154.782C296.142 156.423 298.164 158.726 299.606 161.692C301.064 164.659 301.793 168.131 301.793 172.108C301.793 176.052 301.064 179.499 299.606 182.449C298.164 185.399 296.142 187.694 293.54 189.335C290.955 190.975 287.939 191.795 284.492 191.795ZM284.492 186.526C287.11 186.526 289.265 185.854 290.955 184.512C292.645 183.17 293.897 181.405 294.709 179.217C295.521 177.03 295.927 174.66 295.927 172.108C295.927 169.556 295.521 167.178 294.709 164.974C293.897 162.77 292.645 160.988 290.955 159.629C289.265 158.27 287.11 157.591 284.492 157.591C281.874 157.591 279.719 158.27 278.029 159.629C276.339 160.988 275.087 162.77 274.275 164.974C273.463 167.178 273.057 169.556 273.057 172.108C273.057 174.66 273.463 177.03 274.275 179.217C275.087 181.405 276.339 183.17 278.029 184.512C279.719 185.854 281.874 186.526 284.492 186.526ZM333.16 206.114C330.326 206.114 327.89 205.749 325.852 205.02C323.814 204.307 322.115 203.363 320.756 202.186C319.414 201.026 318.345 199.783 317.549 198.457L322.223 195.176C322.753 195.872 323.424 196.668 324.236 197.562C325.048 198.474 326.158 199.261 327.567 199.924C328.992 200.603 330.857 200.943 333.16 200.943C336.243 200.943 338.786 200.197 340.792 198.706C342.797 197.214 343.799 194.878 343.799 191.696V183.94H343.302C342.871 184.636 342.258 185.498 341.463 186.526C340.684 187.536 339.557 188.44 338.082 189.235C336.624 190.014 334.652 190.403 332.166 190.403C329.083 190.403 326.316 189.674 323.863 188.216C321.427 186.758 319.497 184.636 318.071 181.852C316.663 179.068 315.958 175.687 315.958 171.71C315.958 167.799 316.646 164.394 318.022 161.494C319.397 158.577 321.311 156.323 323.764 154.732C326.217 153.125 329.05 152.321 332.265 152.321C334.751 152.321 336.723 152.735 338.181 153.564C339.656 154.376 340.783 155.304 341.562 156.348C342.358 157.375 342.971 158.221 343.402 158.884H343.998V152.818H349.666V192.094C349.666 195.375 348.92 198.043 347.429 200.098C345.954 202.17 343.965 203.686 341.463 204.647C338.977 205.625 336.209 206.114 333.16 206.114ZM332.961 185.134C335.315 185.134 337.303 184.595 338.927 183.518C340.551 182.441 341.786 180.891 342.631 178.869C343.476 176.848 343.899 174.428 343.899 171.611C343.899 168.86 343.484 166.432 342.656 164.327C341.827 162.223 340.601 160.574 338.977 159.381C337.353 158.187 335.348 157.591 332.961 157.591C330.475 157.591 328.404 158.221 326.747 159.48C325.106 160.74 323.872 162.43 323.043 164.551C322.231 166.672 321.825 169.026 321.825 171.611C321.825 174.262 322.239 176.607 323.068 178.646C323.913 180.667 325.156 182.258 326.797 183.418C328.454 184.562 330.509 185.134 332.961 185.134ZM368.2 191V140.091H385.402C389.395 140.091 392.66 140.812 395.196 142.254C397.748 143.679 399.637 145.609 400.863 148.045C402.09 150.482 402.703 153.199 402.703 156.199C402.703 159.198 402.09 161.924 400.863 164.377C399.654 166.83 397.781 168.785 395.245 170.244C392.71 171.685 389.462 172.406 385.501 172.406H373.172V166.938H385.302C388.037 166.938 390.232 166.465 391.89 165.521C393.547 164.576 394.748 163.3 395.494 161.692C396.256 160.068 396.637 158.237 396.637 156.199C396.637 154.161 396.256 152.338 395.494 150.73C394.748 149.123 393.538 147.863 391.865 146.952C390.191 146.024 387.97 145.56 385.203 145.56H374.365V191H368.2ZM424.705 140.091V191H418.838V140.091H424.705ZM453.685 191.895C451.266 191.895 449.07 191.439 447.098 190.528C445.126 189.6 443.56 188.266 442.4 186.526C441.24 184.769 440.66 182.648 440.66 180.162C440.66 177.974 441.09 176.201 441.952 174.842C442.814 173.467 443.966 172.39 445.407 171.611C446.849 170.832 448.44 170.252 450.18 169.871C451.937 169.473 453.702 169.158 455.475 168.926C457.795 168.628 459.676 168.404 461.118 168.255C462.576 168.089 463.637 167.816 464.3 167.435C464.979 167.054 465.319 166.391 465.319 165.446V165.247C465.319 162.795 464.648 160.889 463.305 159.53C461.979 158.171 459.966 157.491 457.265 157.491C454.464 157.491 452.268 158.105 450.677 159.331C449.086 160.557 447.968 161.866 447.322 163.259L441.753 161.27C442.748 158.95 444.073 157.143 445.731 155.851C447.404 154.542 449.227 153.63 451.199 153.116C453.188 152.586 455.144 152.321 457.066 152.321C458.292 152.321 459.701 152.47 461.292 152.768C462.899 153.05 464.449 153.638 465.94 154.533C467.448 155.428 468.699 156.779 469.694 158.585C470.688 160.392 471.185 162.811 471.185 165.844V191H465.319V185.83H465.02C464.623 186.658 463.96 187.545 463.032 188.489C462.104 189.434 460.869 190.238 459.328 190.901C457.787 191.563 455.906 191.895 453.685 191.895ZM454.58 186.625C456.9 186.625 458.856 186.169 460.447 185.258C462.054 184.346 463.264 183.17 464.076 181.728C464.904 180.286 465.319 178.77 465.319 177.179V171.81C465.07 172.108 464.523 172.381 463.678 172.63C462.849 172.862 461.888 173.069 460.795 173.251C459.717 173.417 458.665 173.566 457.638 173.699C456.627 173.815 455.806 173.914 455.177 173.997C453.652 174.196 452.227 174.519 450.901 174.967C449.592 175.397 448.531 176.052 447.719 176.93C446.924 177.792 446.526 178.969 446.526 180.46C446.526 182.499 447.28 184.04 448.788 185.084C450.313 186.111 452.243 186.625 454.58 186.625ZM505.498 152.818V157.79H485.711V152.818H505.498ZM491.478 143.67H497.344V180.062C497.344 181.72 497.585 182.963 498.065 183.791C498.563 184.603 499.192 185.15 499.955 185.432C500.733 185.697 501.554 185.83 502.415 185.83C503.062 185.83 503.592 185.796 504.006 185.73C504.421 185.647 504.752 185.581 505.001 185.531L506.194 190.801C505.796 190.95 505.241 191.099 504.528 191.249C503.816 191.414 502.913 191.497 501.819 191.497C500.162 191.497 498.538 191.141 496.947 190.428C495.372 189.716 494.063 188.63 493.019 187.172C491.992 185.714 491.478 183.874 491.478 181.653V143.67ZM538.325 152.818V157.79H517.743V152.818H538.325ZM523.908 191V147.548C523.908 145.361 524.421 143.538 525.449 142.08C526.476 140.621 527.81 139.527 529.451 138.798C531.092 138.069 532.823 137.705 534.646 137.705C536.088 137.705 537.265 137.821 538.176 138.053C539.088 138.285 539.767 138.5 540.214 138.699L538.524 143.77C538.226 143.67 537.812 143.546 537.281 143.397C536.768 143.248 536.088 143.173 535.243 143.173C533.304 143.173 531.904 143.662 531.042 144.64C530.197 145.618 529.774 147.051 529.774 148.94V191H523.908ZM567.486 191.795C564.039 191.795 561.015 190.975 558.413 189.335C555.828 187.694 553.806 185.399 552.348 182.449C550.906 179.499 550.185 176.052 550.185 172.108C550.185 168.131 550.906 164.659 552.348 161.692C553.806 158.726 555.828 156.423 558.413 154.782C561.015 153.141 564.039 152.321 567.486 152.321C570.933 152.321 573.949 153.141 576.534 154.782C579.136 156.423 581.158 158.726 582.6 161.692C584.058 164.659 584.787 168.131 584.787 172.108C584.787 176.052 584.058 179.499 582.6 182.449C581.158 185.399 579.136 187.694 576.534 189.335C573.949 190.975 570.933 191.795 567.486 191.795ZM567.486 186.526C570.105 186.526 572.259 185.854 573.949 184.512C575.64 183.17 576.891 181.405 577.703 179.217C578.515 177.03 578.921 174.66 578.921 172.108C578.921 169.556 578.515 167.178 577.703 164.974C576.891 162.77 575.64 160.988 573.949 159.629C572.259 158.27 570.105 157.591 567.486 157.591C564.868 157.591 562.713 158.27 561.023 159.629C559.333 160.988 558.082 162.77 557.27 164.974C556.458 167.178 556.051 169.556 556.051 172.108C556.051 174.66 556.458 177.03 557.27 179.217C558.082 181.405 559.333 183.17 561.023 184.512C562.713 185.854 564.868 186.526 567.486 186.526ZM600.742 191V152.818H606.41V158.585H606.808C607.504 156.696 608.763 155.163 610.586 153.987C612.409 152.81 614.464 152.222 616.751 152.222C617.182 152.222 617.72 152.23 618.367 152.246C619.013 152.263 619.502 152.288 619.833 152.321V158.287C619.634 158.237 619.179 158.163 618.466 158.063C617.77 157.947 617.033 157.889 616.254 157.889C614.398 157.889 612.74 158.279 611.282 159.058C609.84 159.82 608.697 160.88 607.852 162.239C607.023 163.582 606.609 165.115 606.609 166.838V191H600.742ZM633.787 191V152.818H639.455V158.784H639.952C640.748 156.746 642.032 155.163 643.805 154.036C645.578 152.893 647.708 152.321 650.194 152.321C652.712 152.321 654.809 152.893 656.483 154.036C658.173 155.163 659.49 156.746 660.435 158.784H660.833C661.81 156.812 663.277 155.246 665.233 154.086C667.188 152.909 669.533 152.321 672.267 152.321C675.681 152.321 678.474 153.39 680.645 155.528C682.815 157.649 683.901 160.955 683.901 165.446V191H678.034V165.446C678.034 162.629 677.264 160.615 675.723 159.406C674.181 158.196 672.367 157.591 670.279 157.591C667.594 157.591 665.514 158.403 664.039 160.027C662.565 161.634 661.827 163.673 661.827 166.142V191H655.861V164.849C655.861 162.679 655.157 160.93 653.748 159.604C652.34 158.262 650.525 157.591 648.304 157.591C646.78 157.591 645.355 157.997 644.029 158.809C642.72 159.621 641.659 160.748 640.847 162.19C640.051 163.615 639.654 165.264 639.654 167.136V191H633.787Z" fill="url(#paint3_linear_11_27)"/>
</g>
<defs>
<filter id="filter0_d_11_27" x="49.8622" y="64.1349" width="156.099" height="144.431" filterUnits="userSpaceOnUse" color-interpolation-filters="sRGB">
<feFlood flood-opacity="0" result="BackgroundImageFix"/>
<feColorMatrix in="SourceAlpha" type="matrix" values="0 0 0 0 0 0 0 0 0 0 0 0 0 0 0 0 0 0 127 0" result="hardAlpha"/>
<feOffset dy="4"/>
<feGaussianBlur stdDeviation="2"/>
<feComposite in2="hardAlpha" operator="out"/>
<feColorMatrix type="matrix" values="0 0 0 0 0 0 0 0 0 0 0 0 0 0 0 0 0 0 0.08 0"/>
<feBlend mode="normal" in2="BackgroundImageFix" result="effect1_dropShadow_11_27"/>
<feBlend mode="normal" in="SourceGraphic" in2="effect1_dropShadow_11_27" result="shape"/>
</filter>
<linearGradient id="paint0_linear_11_27" x1="52.8925" y1="64.5236" x2="151.841" y2="230.854" gradientUnits="userSpaceOnUse">
<stop stop-color="#A601FF"/>
<stop offset="1" stop-color="#FFD600"/>
</linearGradient>
<linearGradient id="paint1_linear_11_27" x1="92.6066" y1="-0.00973511" x2="92.6066" y2="200.297" gradientUnits="userSpaceOnUse">
<stop stop-color="#A601FF"/>
<stop offset="1" stop-color="#FFD600"/>
</linearGradient>
<linearGradient id="paint2_linear_11_27" x1="52.8926" y1="64.5235" x2="150.923" y2="235.195" gradientUnits="userSpaceOnUse">
<stop stop-color="#A601FF"/>
<stop offset="1" stop-color="#FFD600"/>
</linearGradient>
<linearGradient id="paint3_linear_11_27" x1="240" y1="165.5" x2="706" y2="165.5" gradientUnits="userSpaceOnUse">
<stop stop-color="#A601FF"/>
<stop offset="1" stop-color="#FFD600"/>
</linearGradient>
<clipPath id="clip0_11_27">
<rect width="706" height="208" fill="white"/>
</clipPath>
<clipPath id="clip1_11_27">
<rect width="185.124" height="200.307" fill="white"/>
</clipPath>
</defs>
</svg>
