<svg xmlns="http://www.w3.org/2000/svg" width="120" height="120" viewBox="0 0 120 120">
  <rect width="120" height="120" fill="none"/>
  <g fill="rgba(255,255,255,0.42)" stroke="rgba(110,74,40,0.14)" stroke-width="2">
    <path d="M25 29c0-6 4-10 10-10 4 0 7 2 9 5 2-3 5-5 9-5 6 0 10 4 10 10 0 14-19 21-19 31 0-10-19-17-19-31z"/>
    <path d="M75 62c0-5 4-9 9-9 3 0 6 2 8 4 2-2 4-4 8-4 5 0 9 4 9 9 0 12-17 18-17 27 0-9-17-15-17-27z"/>
    <path d="M18 78c0-4 3-7 7-7 3 0 5 1 6 3 2-2 4-3 6-3 4 0 7 3 7 7 0 8-13 13-13 19 0-6-13-11-13-19z"/>
  </g>
</svg>