<svg xmlns="http://www.w3.org/2000/svg" width="145" height="120" viewBox="0 0 145 120">
  <rect width="145" height="120" fill="none"/>
  <g fill="rgba(255,255,255,0.36)" stroke="rgba(110,74,40,0.16)" stroke-width="2">
    <g transform="translate(28 28)">
      <ellipse cx="0" cy="0" rx="7" ry="9"/>
      <ellipse cx="14" cy="-5" rx="6" ry="8"/>
      <ellipse cx="28" cy="0" rx="7" ry="9"/>
      <ellipse cx="7" cy="14" rx="10" ry="12"/>
      <ellipse cx="21" cy="14" rx="10" ry="12"/>
    </g>
    <g transform="translate(86 66) scale(0.9)">
      <ellipse cx="0" cy="0" rx="7" ry="9"/>
      <ellipse cx="14" cy="-5" rx="6" ry="8"/>
      <ellipse cx="28" cy="0" rx="7" ry="9"/>
      <ellipse cx="7" cy="14" rx="10" ry="12"/>
      <ellipse cx="21" cy="14" rx="10" ry="12"/>
    </g>
    <g transform="translate(100 18) scale(0.7)">
      <ellipse cx="0" cy="0" rx="7" ry="9"/>
      <ellipse cx="14" cy="-5" rx="6" ry="8"/>
      <ellipse cx="28" cy="0" rx="7" ry="9"/>
      <ellipse cx="7" cy="14" rx="10" ry="12"/>
      <ellipse cx="21" cy="14" rx="10" ry="12"/>
    </g>
  </g>
</svg>