<svg xmlns="http://www.w3.org/2000/svg" width="130" height="130" viewBox="0 0 130 130">
  <rect width="130" height="130" fill="none"/>
  <g stroke="rgba(96,64,32,0.14)" stroke-width="2">
    <g transform="translate(32 36)">
      <circle cx="0" cy="-14" r="9" fill="rgba(255,255,255,0.42)"/>
      <circle cx="14" cy="0" r="9" fill="rgba(255,255,255,0.42)"/>
      <circle cx="0" cy="14" r="9" fill="rgba(255,255,255,0.42)"/>
      <circle cx="-14" cy="0" r="9" fill="rgba(255,255,255,0.42)"/>
      <circle cx="10" cy="-10" r="8" fill="rgba(255,255,255,0.32)"/>
      <circle cx="10" cy="10" r="8" fill="rgba(255,255,255,0.32)"/>
      <circle cx="-10" cy="10" r="8" fill="rgba(255,255,255,0.32)"/>
      <circle cx="-10" cy="-10" r="8" fill="rgba(255,255,255,0.32)"/>
      <circle cx="0" cy="0" r="7" fill="rgba(214,161,62,0.38)"/>
    </g>
    <g transform="translate(95 88) scale(0.9)">
      <circle cx="0" cy="-14" r="9" fill="rgba(255,255,255,0.42)"/>
      <circle cx="14" cy="0" r="9" fill="rgba(255,255,255,0.42)"/>
      <circle cx="0" cy="14" r="9" fill="rgba(255,255,255,0.42)"/>
      <circle cx="-14" cy="0" r="9" fill="rgba(255,255,255,0.42)"/>
      <circle cx="10" cy="-10" r="8" fill="rgba(255,255,255,0.32)"/>
      <circle cx="10" cy="10" r="8" fill="rgba(255,255,255,0.32)"/>
      <circle cx="-10" cy="10" r="8" fill="rgba(255,255,255,0.32)"/>
      <circle cx="-10" cy="-10" r="8" fill="rgba(255,255,255,0.32)"/>
      <circle cx="0" cy="0" r="7" fill="rgba(214,161,62,0.38)"/>
    </g>
  </g>
</svg>