<svg xmlns="http://www.w3.org/2000/svg" width="180" height="130" viewBox="0 0 180 130">
  <rect width="180" height="130" fill="none"/>
  <g fill="#ffffff" fill-opacity="0.34" stroke="#5b4635" stroke-opacity="0.08" stroke-width="1.4">
    <path d="M35 48c0-8 7-15 16-15 3 0 6 .7 8.5 2.1C63 27 70 22 78 22c13 0 24 10 24 22 9 .6 16 7.1 16 15 0 8.3-7.8 15-17.5 15H52.5C42.7 74 35 64.9 35 54.5c0-2.3.4-4.4 1.2-6.5z"/>
    <path d="M106 92c0-6.5 5.8-12 13.2-12 2.3 0 4.5.6 6.4 1.6 2.6-6.7 9-11.2 16.4-11.2 10 0 18.3 7.6 18.9 17.2 6.8.4 12.1 5.4 12.1 11.4 0 6.3-5.9 11.4-13.3 11.4h-36.3c-8.4 0-15.4-6.4-15.4-14.2 0-1.5.3-2.8.8-4.2z"/>
    <path d="M8 96c0-5.2 4.7-9.6 10.8-9.6 1.9 0 3.7.5 5.2 1.3 2.1-5.3 7.1-8.9 12.9-8.9 8 0 14.5 6 14.9 13.6 5.4.3 9.6 4.2 9.6 9 0 4.9-4.7 9-10.6 9H21.6c-6.7 0-12.2-5-12.2-11.2 0-1.1.2-2.2.6-3.2z"/>
  </g>
</svg>