<svg xmlns="http://www.w3.org/2000/svg" width="170" height="140" viewBox="0 0 170 140">
  <rect width="170" height="140" fill="none"/>
  <g>
    <g transform="translate(18 26)">
      <rect x="0" y="0" width="18" height="62" rx="3" fill="#ffffff" fill-opacity="0.36" stroke="#5b4635" stroke-opacity="0.12"/>
      <rect x="22" y="8" width="16" height="54" rx="3" fill="#ffffff" fill-opacity="0.28" stroke="#5b4635" stroke-opacity="0.12"/>
      <rect x="42" y="2" width="18" height="58" rx="3" fill="#ffffff" fill-opacity="0.33" stroke="#5b4635" stroke-opacity="0.12"/>
      <rect x="64" y="14" width="14" height="48" rx="3" fill="#ffffff" fill-opacity="0.24" stroke="#5b4635" stroke-opacity="0.12"/>
      <line x1="9" y1="6" x2="9" y2="56" stroke="#ffffff" stroke-opacity="0.5"/>
      <line x1="30" y1="14" x2="30" y2="56" stroke="#ffffff" stroke-opacity="0.45"/>
      <line x1="51" y1="10" x2="51" y2="52" stroke="#ffffff" stroke-opacity="0.48"/>
      <line x1="71" y1="20" x2="71" y2="54" stroke="#ffffff" stroke-opacity="0.42"/>
    </g>
    <g transform="translate(92 58) scale(0.86)">
      <rect x="0" y="0" width="18" height="62" rx="3" fill="#ffffff" fill-opacity="0.36" stroke="#5b4635" stroke-opacity="0.12"/>
      <rect x="22" y="8" width="16" height="54" rx="3" fill="#ffffff" fill-opacity="0.28" stroke="#5b4635" stroke-opacity="0.12"/>
      <rect x="42" y="2" width="18" height="58" rx="3" fill="#ffffff" fill-opacity="0.33" stroke="#5b4635" stroke-opacity="0.12"/>
      <rect x="64" y="14" width="14" height="48" rx="3" fill="#ffffff" fill-opacity="0.24" stroke="#5b4635" stroke-opacity="0.12"/>
      <line x1="9" y1="6" x2="9" y2="56" stroke="#ffffff" stroke-opacity="0.5"/>
      <line x1="30" y1="14" x2="30" y2="56" stroke="#ffffff" stroke-opacity="0.45"/>
      <line x1="51" y1="10" x2="51" y2="52" stroke="#ffffff" stroke-opacity="0.48"/>
      <line x1="71" y1="20" x2="71" y2="54" stroke="#ffffff" stroke-opacity="0.42"/>
    </g>
  </g>
</svg>